<svg id="_Group_" data-name="&lt;Group&gt;" xmlns="http://www.w3.org/2000/svg" width="32.146" height="39.511" viewBox="0 0 32.146 39.511">
  <g id="_Group_2" data-name="&lt;Group&gt;">
    <path id="_Path_" data-name="&lt;Path&gt;" d="M36.458,24.79a8.979,8.979,0,0,1,4.276-7.534,9.191,9.191,0,0,0-7.242-3.915c-3.047-.32-6,1.823-7.553,1.823-1.583,0-3.973-1.791-6.547-1.738a9.644,9.644,0,0,0-8.116,4.95c-3.509,6.075-.892,15,2.47,19.915,1.682,2.4,3.647,5.091,6.219,5,2.517-.1,3.457-1.6,6.495-1.6,3.01,0,3.892,1.6,6.516,1.544,2.7-.044,4.4-2.415,6.025-4.843a19.89,19.89,0,0,0,2.755-5.611,8.677,8.677,0,0,1-5.3-7.982Z" transform="translate(-9.609 -3.779)" fill="#0089cf"/>
    <path id="_Path_2" data-name="&lt;Path&gt;" d="M24.671,14.18a8.841,8.841,0,0,0,2.022-6.333,9,9,0,0,0-5.82,3.011,8.412,8.412,0,0,0-2.075,6.1A7.438,7.438,0,0,0,24.671,14.18Z" transform="translate(-2.778 -7.847)" fill="#0089cf"/>
  </g>
</svg>
