<svg width="21" height="21" viewBox="0 0 21 21" fill="none" xmlns="http://www.w3.org/2000/svg">
<g clip-path="url(#clip0_1439_8976)">
<path d="M15.1621 6.70264C16.5428 6.70264 17.6621 5.58335 17.6621 4.20264C17.6621 2.82192 16.5428 1.70264 15.1621 1.70264C13.7814 1.70264 12.6621 2.82192 12.6621 4.20264C12.6621 5.58335 13.7814 6.70264 15.1621 6.70264Z" stroke="white" stroke-width="2" stroke-linecap="round" stroke-linejoin="round"/>
<path d="M5.16211 12.5361C6.54282 12.5361 7.66211 11.4168 7.66211 10.0361C7.66211 8.65542 6.54282 7.53613 5.16211 7.53613C3.7814 7.53613 2.66211 8.65542 2.66211 10.0361C2.66211 11.4168 3.7814 12.5361 5.16211 12.5361Z" stroke="white" stroke-width="2" stroke-linecap="round" stroke-linejoin="round"/>
<path d="M15.1621 18.3696C16.5428 18.3696 17.6621 17.2503 17.6621 15.8696C17.6621 14.4889 16.5428 13.3696 15.1621 13.3696C13.7814 13.3696 12.6621 14.4889 12.6621 15.8696C12.6621 17.2503 13.7814 18.3696 15.1621 18.3696Z" stroke="white" stroke-width="2" stroke-linecap="round" stroke-linejoin="round"/>
<path d="M7.32056 11.2944L13.0122 14.6111" stroke="white" stroke-width="2" stroke-linecap="round" stroke-linejoin="round"/>
<path d="M13.0039 5.46094L7.32056 8.7776" stroke="white" stroke-width="2" stroke-linecap="round" stroke-linejoin="round"/>
</g>
<defs>
<clipPath id="clip0_1439_8976">
<rect width="20" height="20" fill="white" transform="translate(0.162109 0.0361328)"/>
</clipPath>
</defs>
</svg>
