<svg width="51" height="55" viewBox="0 0 51 55" fill="none" xmlns="http://www.w3.org/2000/svg">
<path d="M36.3333 27.5001C36.3333 24.6269 35.1919 21.8714 33.1603 19.8398C31.1286 17.8081 28.3731 16.6667 25.5 16.6667C22.6268 16.6667 19.8713 17.8081 17.8396 19.8398C15.808 21.8714 14.6666 24.6269 14.6666 27.5001" stroke="#01E132" stroke-width="2" stroke-linecap="round" stroke-linejoin="round"/>
<path d="M25.5 8L25.5 1.5" stroke="#01E132" stroke-width="2" stroke-linecap="round" stroke-linejoin="round"/>
<path d="M8.64478 10.6433L11.7214 13.72" stroke="#01E132" stroke-width="2" stroke-linecap="round" stroke-linejoin="round"/>
<path d="M1.66663 27.5H5.99996" stroke="#01E132" stroke-width="2" stroke-linecap="round" stroke-linejoin="round"/>
<path d="M45 27.5H49.3333" stroke="#01E132" stroke-width="2" stroke-linecap="round" stroke-linejoin="round"/>
<path d="M39.2786 13.72L42.3552 10.6433" stroke="#01E132" stroke-width="2" stroke-linecap="round" stroke-linejoin="round"/>
<path d="M14.6666 27.4999C14.6666 30.3731 15.808 33.1286 17.8396 35.1602C19.8712 37.1919 22.6267 38.3333 25.4999 38.3333C28.3731 38.3333 31.1286 37.1919 33.1602 35.1602C35.1919 33.1286 36.3333 30.3731 36.3333 27.4999" stroke="#01E132" stroke-width="2" stroke-linecap="round" stroke-linejoin="round"/>
<path d="M25.5 47L25.5 53.5" stroke="#01E132" stroke-width="2" stroke-linecap="round" stroke-linejoin="round"/>
<path d="M42.3551 44.3567L39.2784 41.28" stroke="#01E132" stroke-width="2" stroke-linecap="round" stroke-linejoin="round"/>
<path d="M49.3333 27.5H44.9999" stroke="#01E132" stroke-width="2" stroke-linecap="round" stroke-linejoin="round"/>
<path d="M6 27.5H1.66667" stroke="#01E132" stroke-width="2" stroke-linecap="round" stroke-linejoin="round"/>
<path d="M11.7213 41.28L8.64465 44.3567" stroke="#01E132" stroke-width="2" stroke-linecap="round" stroke-linejoin="round"/>
</svg>
