<svg xmlns="http://www.w3.org/2000/svg" xmlns:xlink="http://www.w3.org/1999/xlink" viewBox="0 0 266.52 291.66"><defs><style>.cls-1{fill:url(#radial-gradient);}.cls-2{fill:url(#radial-gradient-2);}.cls-3{fill:url(#linear-gradient);}.cls-4{fill:url(#radial-gradient-3);}.cls-5{fill:url(#linear-gradient-2);}.cls-6{fill:url(#radial-gradient-4);}.cls-7{fill:url(#radial-gradient-5);}.cls-8{fill:url(#linear-gradient-3);}.cls-9{fill:url(#linear-gradient-4);}.cls-10{fill:url(#linear-gradient-5);}.cls-11{fill:url(#linear-gradient-6);}.cls-12{fill:url(#linear-gradient-7);}</style><radialGradient id="radial-gradient" cx="163.45" cy="168.39" r="105.23" gradientTransform="translate(-2.89) scale(0.99 1)" gradientUnits="userSpaceOnUse"><stop offset="0.1" stop-color="#f813af"/><stop offset="0.7" stop-color="#571264"/><stop offset="0.84" stop-color="#2f1251"/></radialGradient><radialGradient id="radial-gradient-2" cx="154.92" cy="170.13" r="108.63" gradientUnits="userSpaceOnUse"><stop offset="0.91" stop-color="#2f1251"/><stop offset="1" stop-color="#594174"/></radialGradient><linearGradient id="linear-gradient" x1="118.92" y1="55.01" x2="141.87" y2="-132.44" gradientUnits="userSpaceOnUse"><stop offset="0" stop-color="#00ade4"/><stop offset="0.27" stop-color="#80d6f1"/></linearGradient><radialGradient id="radial-gradient-3" cx="139.14" cy="149.38" r="140.79" gradientUnits="userSpaceOnUse"><stop offset="0" stop-color="#2f1251"/><stop offset="0.21" stop-color="#243572"/><stop offset="0.69" stop-color="#0a8dc5"/><stop offset="0.85" stop-color="#00ade4"/></radialGradient><linearGradient id="linear-gradient-2" x1="89.68" y1="68.13" x2="195.02" y2="100.3" gradientUnits="userSpaceOnUse"><stop offset="0" stop-color="#6713af"/><stop offset="0.84" stop-color="#00ade4"/></linearGradient><radialGradient id="radial-gradient-4" cx="161.19" cy="169.43" r="105.33" gradientUnits="userSpaceOnUse"><stop offset="0" stop-color="#00ade4" stop-opacity="0"/><stop offset="0.85" stop-color="#2f1251" stop-opacity="0"/><stop offset="1" stop-color="#442a62" stop-opacity="0"/></radialGradient><radialGradient id="radial-gradient-5" cx="213.88" cy="78.23" r="0.73" gradientUnits="userSpaceOnUse"><stop offset="0" stop-color="#00ade4"/><stop offset="0.85" stop-color="#2f1251"/><stop offset="1" stop-color="#442a62"/></radialGradient><linearGradient id="linear-gradient-3" x1="24.09" y1="8.89" x2="73.18" y2="23.88" gradientUnits="userSpaceOnUse"><stop offset="0.27" stop-color="#7dd5f1"/><stop offset="1" stop-color="#00ade4"/></linearGradient><linearGradient id="linear-gradient-4" x1="21.28" y1="17.99" x2="62.37" y2="30.54" gradientUnits="userSpaceOnUse"><stop offset="0.33" stop-color="#00ade4"/><stop offset="0.99" stop-color="#a172cf"/><stop offset="1" stop-color="#a471cf"/></linearGradient><linearGradient id="linear-gradient-5" x1="34.39" y1="112.1" x2="75.72" y2="128.78" gradientUnits="userSpaceOnUse"><stop offset="0" stop-color="#80d6f1"/><stop offset="0.55" stop-color="#00ade4"/><stop offset="1" stop-color="#594174"/></linearGradient><linearGradient id="linear-gradient-6" x1="128.62" y1="219.74" x2="-28.16" y2="171.86" gradientUnits="userSpaceOnUse"><stop offset="0" stop-color="#00ade4"/><stop offset="0.1" stop-color="#178ad8"/><stop offset="0.31" stop-color="#5232ba"/><stop offset="0.38" stop-color="#6713af"/><stop offset="0.87" stop-color="#2f1251"/></linearGradient><linearGradient id="linear-gradient-7" x1="196.61" y1="236.7" x2="227.99" y2="246.28" gradientUnits="userSpaceOnUse"><stop offset="0.26" stop-color="#6713af"/><stop offset="1" stop-color="#00ade4"/></linearGradient></defs><g id="Layer_2" data-name="Layer 2"><g id="Layer_12" data-name="Layer 12"><ellipse class="cls-1" cx="159.16" cy="168.39" rx="104.34" ry="105.23"/><path class="cls-2" d="M154.92,61.49A108.64,108.64,0,0,0,46.28,170.12c0,60,48.64,108.24,108.64,108.64A107.92,107.92,0,0,0,263.55,170.12C263.36,110.13,214.91,61.49,154.92,61.49Zm75,184.26c-19.59,17.37-48.76,28.72-75,27.76-30.85-1.14-56.22-16.8-73.11-30.28C60.24,226,51.53,197.74,51.53,170.12A102.74,102.74,0,0,1,81.81,97c.46-.46.94-.89,1.41-1.34a12.73,12.73,0,0,1-1.42,3.19c-1.53,2.29-4.1,3.21-5.71,5.36a22,22,0,0,0-3.19,7.12c-.59,2.38-.23,5.27-1.07,7.64-1.06,3-3,4.81-2.63,8.31,4.2,1.24,2.38-6.22,5.92-6.61,1.12,2.79.38,8,.06,11-.44,4.17-1.25,5.21,1.24,8.79,2,2.84,2.63,4.74,6.45,5.19,3.51.42,5,2,6.42,5.38,2.7.57,4.34,1,4.69,4,1.17.65,3.37,2.77,4.61,3.09,1.79.47,4.79-2.08,6.48-.11,2.82,3.28-3.58,11.86-4.72,14.82-1.68,4.34-1.92,10.71,2.18,13.82,2.11,1.6,4.36,2.37,5,5.26.64,2.69.14,4.92,1.33,7.45,1.85,3.95,6.1,5.27,9.12,8.29,4,4,3.69,9.12,3.69,14.73,0,5.88,2.23,10.35,3,15.73.8,5.56,2.43,10.7,3.6,16.07.88,4,4.36,10.15,9.41,9.32.35-1.91-1.64-3.41-1.89-5.3-.22-1.72.26-3.51-.08-5.36-.68-3.65-.65-5.79,1.77-9,.86-1.12,2-2,2.92-3.17,1.71-2.18.4-1.53.32-3.92-.09-3,.82-1.52,2.61-2.44a14.17,14.17,0,0,0,2.68-2.68c1.57-1.63,4-3.58,5.2-5.52,1.36-2.17,1.19-5.21,2.59-7.45,1.6-2.58,3.87-2.58,6.11-4.26,2.9-2.18,1.71-4.47,2.24-7.46a33.85,33.85,0,0,1,6.29-14.48c4-5,5.67-9.26.84-14.07-2.38-2.37-3.62-1.74-6.78-2.57-2.41-.63-4.58-2.39-7-2.69-1.47-.18-2.34.35-3.68,0s-1.1-1.09-2.42-1.08c-2,0-4.72,4.12-6.38,1.5-.92-1.46,1.88-5.49,1.76-7.45-.16-2.4-1.05-6.32-3.41-7.63-.89-.5-2.87-.57-4-1a21.71,21.71,0,0,1-3.69-2c-1.5-1-4.4-2.64-5.06-4.36-1.84-.07-3.09-1.09-5-1.06-1.68,0-2.8.8-4.62.59-1.59-.17-3.3-1.43-5-1.19-1.14.16-2.84,1.64-3.83,2.2A26.94,26.94,0,0,1,102,154.8c-4.49.84-5.29-.88-5-5l-.67-1.34c1.67-4.63-1.33-5-4.63-6.08-.46-3.29,3.59-5.65,1.9-9.26-3.43-.18-7.17,9.47-10.07,5.29-1.91-2.75,1-10.46,2.68-12.8s7.87-6.6,10.78-7a4.7,4.7,0,0,1,5.11,2.7c1,2.16-.29,4.2,0,6.65,2.9-.67,2.15-4.34,2-6.32-.21-3.29,1.52-3,3.2-5.42,1.53-2.16,1.76-4.63,3.67-6.72,1.49-1.63,3.23-3.34,4.86-4.85,1.86-1.71,4-1.55,5.87-2.81,2.9-1.92-.94-5.49,3.34-5.22,1.52.1.77,1.05,2.78.59a33.24,33.24,0,0,0,3.33-1.35c4.08-1.66,1.19-2.1-.69-4.26-2.38-2.75,1-2.26,3.45-2.68,1.8-.3,1.42-.89,3,.17,1.39.93.57,2.18,2.6,2.11,3.86-.13,1.19-4,.33-5.29-1.48-2.2-1.85-3.73-5-3.82a4.87,4.87,0,0,0-.1-3.24c-2.62.34-3.07-1.56-5.05-2.31-3.34-1.27-2.81,1.47-4.17,3.33s-4.1,1.59-5.13,3.94,0,4.31-4,3.64a12.87,12.87,0,0,0,.26-4.92,17.82,17.82,0,0,1-3.24-.78c0-3.93,4.35-4.26,7.3-4.63,3.31-.42,4.39-3.78,7.35-4.35,2.76-.53,4.73,3.94,8.13,1.35,1.95-1.48,1-2.35.34-3.77a21.15,21.15,0,0,0-1.43-1.59s0-.08-.07-.12c2.64-.51,5.31-.9,8-1.21a26.31,26.31,0,0,0,2.19,4.26c.44.75,1.27,1.25,1.62,2.07s-.54,2.09.64,2.72c1.82,1,7.11-5.36,8.38-6.39,1.62-1.3,2.62-2,2.24-3.28A103.15,103.15,0,0,1,183,70.6c.63.8,1.29,1.62,1.94,2.53,1.41,2,2.31,3.72,4.85,4.59,1.47.51,6.17.42,4.22,3.78-1.81,3.1-3.8-1-4.71-1.94-1.26-1.35-5-2.86-4.88.25.18,4.62,10.59,3.88,8.36,9,1.24.74,3.71,2,3.3,3.78-.5,2.24-3.42.81-3.36,3.68a6.64,6.64,0,0,0,8.64,6c4.39-1.56,1.08-7.66,6.11-8.28,2-.25,3.16.33,4.93,1.74,1.45,1.14,2.38,3.75,4.38,3.54.21-1.23-.73-2.12-.89-3.26a12.92,12.92,0,0,1,5.54,3.66c1.34,2,1.2,5,4.48,2.34-.49-.4-.74-1.3-1-1.62,4.19,0,7.12,1.74,8.92,5.38,4,8.12-5.86,1.68-6.35,5.91-2.43-.77-3.51-2.73-5.62-3.9-1-.56-2.85-.26-3.62-.82-1.06-.78-.8-2.18-1.73-3-3.65-3-12,1.84-15.34,3.78-.91.52-1.88.58-2.5,1.56-1.07,1.69.43,2.12.1,3.7-.48,2.25-3.41,3.29-4.3,5.09-2.13,4.33,2.19,10.53,1.61,15.33-.32,2.67-3.2,5.56-2.09,7.79.47,1,2.13,1.78,2.76,2.92a31.76,31.76,0,0,0,1.59,3.44,135,135,0,0,0,8.88,10.54,6.3,6.3,0,0,0,6.34,1.84,34.69,34.69,0,0,0,7-2c2.53-1.21,2.87-2.91,5.52-1.76,2.12.92,4,3.61,6.44,1.38,2,2-.22,5.45-.67,7.66-.58,2.84.54,5.31,2.28,7.72,2.1,2.9,2.59,3.41,2.16,7.27a82.76,82.76,0,0,1-1.75,8.76c-.62,2.86-2.44,5-2.34,8.06.09,2.79,1.3,5,.93,8a67.15,67.15,0,0,1-1.17,8.37c-.71,2.65-2.58,5-3.37,7.7s-.53,5.92,1.27,8,3.74.95,5.94-.72c4.34-3.3,6.32-8.89,9.2-13.34s5.92-8.68,7.88-13.39c.42-1,5.57-1.73,5.24-.68C252.75,217.65,242.63,234.46,229.9,245.75Z"/><path class="cls-3" d="M179,18c-11.21-5.52-13.34-8.46-34.54-11.48A140.38,140.38,0,0,0,90,16.08,154.24,154.24,0,0,0,14.67,78.76c.22-.47.44-.94.67-1.41A147.94,147.94,0,0,1,65.68,19.69q5.28-3.54,10.8-6.6,3.13-1.75,6.36-3.34s83.17-39.51,138,40.53A132.41,132.41,0,0,0,179,18Z"/><path class="cls-4" d="M220.89,50.36c33.73,26.78-6.07,28.29-6.07,28.29-1.9-1.06-3.84-2.09-5.83-3.07l-.55-.26,0,0-.68-.34c-1.45-.72-2.89-1.38-4.35-2s-2.73-1.47-4.13-2.16a107.8,107.8,0,0,0-114,11.84C62.81,83.55,49.31,109,49.31,109s-13.45,28.77-30.1,47c10,1.67,19.53.77,28.29-3.51a122,122,0,0,0,32,95A108.22,108.22,0,0,0,104.06,264a136.12,136.12,0,0,0,15.8,6.91A121.34,121.34,0,0,0,182,273.26a122.69,122.69,0,0,0,35.23-13.92,4.09,4.09,0,0,0,1.3-1.58c.81-1.77.27-4.87-9.09-8.26-14.54-5.28-12.51-13.88-12.51-13.88s15.78,22.16,31.42,7.42l.86-.79c6-5.4,10.29-6.54,14.07-6.86,6.21-.52,11,1.16,19.86-10.22-2.65,30.84-37,45.47-55.2,53.35A144.92,144.92,0,0,1,88.36,279c-1.78-.79-3.55-1.61-5.31-2.48A148.69,148.69,0,0,1,.53,130.44,132.45,132.45,0,0,1,14,80.15c.23-.47.47-.93.71-1.39A154.24,154.24,0,0,1,90,16.08a140.38,140.38,0,0,1,54.48-9.57c21.2,3,23.33,6,34.54,11.48a132.41,132.41,0,0,1,41.83,32.29h0l0,0,0,0Z"/><path class="cls-5" d="M199.24,70.78c1.4.69,2.77,1.41,4.13,2.16a105.17,105.17,0,0,0-120,25.54c1.09-3.82,2.13-7.86,3.09-12.12l-1.17-3.74A107.8,107.8,0,0,1,199.24,70.78Z"/><path class="cls-6" d="M204,73.27l9,4.46c.54.3,1.07.6,1.58.91a105.34,105.34,0,0,1,28.74,156.75c-3.78.32-8.07,1.46-14.07,6.86-17.86-11.31-12.44,3.71-32.28-6.63,0,0-2,8.6,12.51,13.88,9.36,3.39,9.9,6.49,9.09,8.26A105.32,105.32,0,0,1,58.85,144.55C68.66,135.36,77,120.5,83.34,98.48A105.4,105.4,0,0,1,186,67.07,119,119,0,0,1,204,73.27Z"/><path class="cls-7" d="M213,77.73l1.85.92h-.27C214,78.33,213.51,78,213,77.73Z"/><path class="cls-8" d="M20.28,21.39c.95-1.3,21.93-28.84,56.2-8.3q-5.52,3.06-10.8,6.6C40.88,2.88,21.38,20.36,20.28,21.39Z"/><path class="cls-9" d="M20.28,21.39c1.1-1,20.6-18.51,45.4-1.7a148,148,0,0,0-22.82,18.9c-10-4.9-3.37-18.33-22.63-17.16Z"/><path class="cls-10" d="M85.26,82.62l1.17,3.74c-1,4.26-2,8.3-3.09,12.12-6.3,22-14.68,36.88-24.49,46.07a46.45,46.45,0,0,1-11.35,7.92c-8.76,4.28-18.31,5.18-28.29,3.51,16.65-18.26,30.1-47,30.1-47S62.81,83.55,85.26,82.62Z"/><path class="cls-11" d="M47.5,152.47a46.45,46.45,0,0,0,11.35-7.92A105.33,105.33,0,0,0,175.2,273.81c2.28-.1,4.56-.28,6.81-.55a121.34,121.34,0,0,1-62.15-2.32,136.12,136.12,0,0,1-15.8-6.91,108.22,108.22,0,0,1-24.52-16.57A122,122,0,0,1,47.5,152.47Z"/><path class="cls-12" d="M196.94,235.62c19.84,10.34,14.42-4.68,32.28,6.63l-.86.79C212.72,257.78,196.94,235.62,196.94,235.62Z"/></g></g></svg>