<svg width="2623" height="388" viewBox="0 0 2623 388" fill="none" xmlns="http://www.w3.org/2000/svg">
<g clip-path="url(#clip0_34693_16035)">
<path d="M394.921 72.1535V107.315H453.623V273.29H489.082V107.315H547.784V72.1535H394.921ZM579.596 115.957V146.351H673.758C691.041 146.351 697.894 155.886 697.894 168.103V180.022H623.101C584.364 180.022 570.061 196.709 570.061 225.315C570.061 255.113 585.556 273.29 622.803 273.29H696.404C722.925 273.29 728.884 264.351 728.884 241.704V167.805C728.884 138.007 713.389 115.957 674.056 115.957H579.596ZM689.253 242.598H623.101C607.308 242.598 601.051 235.149 601.051 223.527C601.051 211.906 607.01 205.053 623.697 205.053H697.894V234.553C697.894 240.214 695.51 242.598 689.253 242.598ZM795.594 115.957C779.801 115.957 773.544 121.916 773.544 140.391V273.29H805.13V150.82C805.13 147.84 806.322 146.351 809.004 146.351H860.554C893.63 146.351 907.933 160.058 907.933 184.79V273.29H939.817V184.79C939.817 141.285 913.892 115.957 860.554 115.957H795.594ZM1045.01 115.957C1003 115.957 976.776 140.391 976.776 191.048C976.776 242.002 1003 266.734 1045.01 266.734H1114.44V273.886C1114.44 296.532 1106.69 305.77 1083.15 305.77H993.164V336.164H1086.73C1130.83 336.164 1146.33 318.583 1146.33 273.886V183.3C1146.33 138.007 1126.06 115.957 1088.52 115.957H1045.01ZM1008.66 192.239C1008.66 160.058 1020.88 146.351 1047.99 146.351H1079.28C1104.61 146.351 1114.44 157.376 1114.44 183.002V238.128H1047.99C1020.88 238.128 1008.66 224.421 1008.66 192.239ZM1190.54 47.7192V273.29H1222.13V47.7192H1190.54ZM1318.91 115.957C1279.58 115.957 1264.09 138.007 1264.09 167.805V221.442C1264.09 251.24 1279.58 273.29 1318.91 273.29H1415.16V242.598H1318.91C1301.63 242.598 1294.78 233.361 1294.78 220.846V209.522H1369.57C1408.31 209.522 1422.91 193.133 1422.91 164.229C1422.91 133.835 1407.12 115.957 1369.87 115.957H1318.91ZM1294.78 168.103C1294.78 155.886 1301.63 146.351 1318.91 146.351H1369.57C1385.07 146.351 1391.92 154.098 1391.92 166.017C1391.92 177.638 1385.66 184.79 1368.68 184.79H1294.78V168.103ZM1626.41 72.1535C1568.01 72.1535 1535.53 105.527 1535.53 173.169C1535.53 240.512 1567.71 273.29 1626.41 273.29H1653.83C1712.53 273.29 1744.71 240.512 1744.71 173.169C1744.71 105.527 1712.23 72.1535 1653.83 72.1535H1626.41ZM1653.83 107.315C1692.57 107.315 1709.25 126.982 1709.25 172.871C1709.25 219.058 1692.57 238.128 1653.83 238.128H1626.41C1587.38 238.128 1570.69 219.058 1570.69 173.169C1570.69 126.982 1587.68 107.315 1626.41 107.315H1653.83ZM1768.67 115.957V146.351H1790.13V273.29H1822.01V146.351H1865.51V115.957H1822.01V100.164C1822.01 82.5828 1828.27 76.6232 1843.17 76.6232H1864.92V47.7192H1836.61C1804.13 47.7192 1790.13 60.8303 1790.13 101.952V115.957H1768.67ZM1886.23 115.957V146.351H1907.69V273.29H1939.57V146.351H1983.08V115.957H1939.57V100.164C1939.57 82.5828 1945.83 76.6232 1960.73 76.6232H1982.48V47.7192H1954.17C1921.69 47.7192 1907.69 60.8303 1907.69 101.952V115.957H1886.23ZM2013.77 47.7192V273.29H2045.36V47.7192H2013.77ZM2090.59 115.957V273.29H2122.18V115.957H2090.59ZM2090.59 56.6586V93.3101H2122.48V56.6586H2090.59ZM2189.47 115.957C2173.67 115.957 2167.42 121.916 2167.42 140.391V273.29H2199V150.82C2199 147.84 2200.19 146.351 2202.87 146.351H2254.43C2287.5 146.351 2301.8 160.058 2301.8 184.79V273.29H2333.69V184.79C2333.69 141.285 2307.76 115.957 2254.43 115.957H2189.47ZM2429.65 115.957C2390.31 115.957 2374.82 138.007 2374.82 167.805V221.442C2374.82 251.24 2390.31 273.29 2429.65 273.29H2525.89V242.598H2429.65C2412.36 242.598 2405.51 233.361 2405.51 220.846V209.522H2480.3C2519.04 209.522 2533.64 193.133 2533.64 164.229C2533.64 133.835 2517.85 115.957 2480.6 115.957H2429.65ZM2405.51 168.103C2405.51 155.886 2412.36 146.351 2429.65 146.351H2480.3C2495.8 146.351 2502.65 154.098 2502.65 166.017C2502.65 177.638 2496.39 184.79 2479.41 184.79H2405.51V168.103Z" fill="white"/>
<path d="M235.5 321.8C293.126 321.8 339.84 274.687 339.84 216.57C339.84 158.453 293.126 111.34 235.5 111.34C177.875 111.34 131.16 158.453 131.16 216.57C131.16 274.687 177.875 321.8 235.5 321.8Z" fill="url(#paint0_radial_34693_16035)"/>
<path d="M231.259 109.67C202.448 109.67 174.818 121.115 154.446 141.487C134.074 161.859 122.629 189.489 122.629 218.3C122.629 278.3 171.269 326.53 231.259 326.93C245.551 327.026 259.72 324.281 272.943 318.856C286.166 313.431 298.179 305.433 308.285 295.326C318.392 285.22 326.39 273.207 331.815 259.984C337.24 246.761 339.985 232.592 339.889 218.3C339.699 158.3 291.259 109.67 231.259 109.67ZM306.259 293.92C286.669 311.29 257.509 322.65 231.259 321.68C200.419 320.54 175.039 304.88 158.159 291.4C136.579 274.17 127.879 245.91 127.879 218.3C127.84 204.717 130.497 191.261 135.695 178.711C140.892 166.162 148.528 154.768 158.159 145.19C158.619 144.74 159.099 144.31 159.559 143.86C159.24 144.984 158.766 146.058 158.149 147.05C156.609 149.34 154.049 150.25 152.439 152.4C150.956 154.562 149.876 156.974 149.249 159.52C148.659 161.9 149.019 164.79 148.179 167.17C147.119 170.17 145.179 171.97 145.539 175.47C149.739 176.71 147.919 169.25 151.459 168.87C152.579 171.65 151.849 176.87 151.529 179.87C151.089 184.05 150.269 185.08 152.769 188.67C154.769 191.51 155.399 193.41 159.219 193.86C162.719 194.27 164.219 195.86 165.639 199.23C168.339 199.8 169.969 200.23 170.319 203.23C171.489 203.88 173.699 205.99 174.939 206.31C176.729 206.78 179.719 204.23 181.409 206.2C184.239 209.48 177.839 218.06 176.689 221.03C175.019 225.36 174.769 231.73 178.879 234.84C180.989 236.44 183.229 237.21 183.879 240.11C184.509 242.79 184.019 245.02 185.209 247.55C187.059 251.55 191.299 252.82 194.319 255.84C198.319 259.84 198.009 264.96 198.009 270.57C198.009 276.45 200.249 280.92 201.009 286.31C201.809 291.86 203.449 297.01 204.609 302.37C205.489 306.37 208.979 312.52 214.019 311.7C214.369 309.78 212.389 308.28 212.139 306.39C211.909 304.67 212.399 302.88 212.049 301.04C211.369 297.39 211.409 295.24 213.829 292.04C214.679 290.92 215.829 290.04 216.739 288.87C218.449 286.69 217.139 287.34 217.069 284.95C216.979 281.95 217.879 283.44 219.679 282.51C220.609 282.03 221.679 280.57 222.359 279.83C223.919 278.2 226.359 276.25 227.549 274.31C228.909 272.14 228.739 269.11 230.139 266.86C231.739 264.28 234.009 264.28 236.249 262.6C239.159 260.42 237.959 258.13 238.489 255.14C239.423 249.886 241.582 244.925 244.789 240.66C248.789 235.66 250.449 231.4 245.629 226.6C243.249 224.22 242.009 224.85 238.839 224.03C236.429 223.39 234.259 221.63 231.839 221.33C230.369 221.15 229.499 221.68 228.159 221.33C226.819 220.98 227.059 220.24 225.739 220.25C223.739 220.25 221.029 224.38 219.369 221.76C218.439 220.3 221.249 216.26 221.119 214.3C220.959 211.9 220.119 207.98 217.719 206.67C216.829 206.17 214.849 206.1 213.719 205.67C212.423 205.132 211.187 204.462 210.029 203.67C208.529 202.67 205.629 201.03 204.959 199.32C203.119 199.24 201.869 198.23 199.959 198.25C198.279 198.25 197.159 199.05 195.349 198.85C193.759 198.67 192.039 197.41 190.349 197.65C189.199 197.81 187.509 199.29 186.509 199.85C183.964 201.344 181.19 202.408 178.299 203C173.819 203.84 173.009 202.13 173.299 198L172.629 196.66C174.289 192.03 171.289 191.66 167.989 190.58C167.529 187.29 171.589 184.93 169.889 181.32C166.459 181.14 162.729 190.79 159.819 186.61C157.909 183.86 160.819 176.15 162.499 173.81C164.179 171.47 170.369 167.21 173.279 166.81C174.309 166.622 175.372 166.785 176.298 167.273C177.225 167.76 177.961 168.545 178.389 169.5C179.339 171.66 178.099 173.7 178.389 176.16C181.279 175.49 180.529 171.81 180.389 169.84C180.179 166.54 181.909 166.79 183.589 164.42C185.119 162.25 185.359 159.78 187.269 157.69C188.749 156.06 190.499 154.35 192.129 152.85C193.989 151.13 196.129 151.29 197.999 150.03C200.899 148.11 197.059 144.55 201.339 144.81C202.859 144.91 202.099 145.81 204.109 145.4C205.244 145.014 206.356 144.563 207.439 144.05C211.519 142.39 208.629 141.95 206.759 139.79C204.379 137.05 207.759 137.53 210.199 137.11C212.009 136.81 211.629 136.22 213.199 137.28C214.599 138.22 213.779 139.46 215.799 139.39C219.669 139.26 216.989 135.39 216.129 134.1C214.659 131.9 214.279 130.37 211.129 130.28C211.456 129.219 211.421 128.079 211.029 127.04C208.409 127.38 207.959 125.48 205.969 124.73C202.629 123.46 203.169 126.2 201.799 128.06C200.429 129.92 197.709 129.65 196.669 132C195.629 134.35 196.669 136.31 192.669 135.64C193.068 134.031 193.153 132.361 192.919 130.72C191.816 130.564 190.731 130.303 189.679 129.94C189.679 126.02 194.029 125.69 196.989 125.31C200.299 124.9 201.379 121.53 204.329 120.96C207.089 120.43 209.069 124.9 212.469 122.31C214.409 120.83 213.469 119.97 212.799 118.54C212.609 118.16 211.629 117.31 211.369 116.95C211.343 116.913 211.323 116.873 211.309 116.83C213.949 116.32 216.609 115.93 219.309 115.63C219.909 117.112 220.645 118.534 221.509 119.88C221.949 120.63 222.769 121.13 223.129 121.95C223.489 122.77 222.579 124.04 223.759 124.67C225.579 125.67 230.879 119.31 232.149 118.28C233.759 116.98 234.769 116.28 234.389 115C242.795 115.251 251.139 116.52 259.239 118.78C259.879 119.58 260.529 120.4 261.189 121.31C262.599 123.31 263.489 125.04 266.029 125.91C267.509 126.41 272.209 126.32 270.249 129.68C268.449 132.78 266.449 128.68 265.539 127.74C264.279 126.39 260.539 124.89 260.669 127.99C260.839 132.61 271.259 131.87 269.019 136.99C270.269 137.72 272.729 138.94 272.329 140.76C271.829 143.01 268.899 141.58 268.959 144.45C269.018 145.46 269.307 146.443 269.804 147.324C270.301 148.205 270.992 148.96 271.826 149.534C272.659 150.107 273.613 150.482 274.613 150.63C275.614 150.778 276.635 150.696 277.599 150.39C281.989 148.83 278.689 142.74 283.719 142.11C285.719 141.86 286.869 142.44 288.649 143.85C290.099 145 291.029 147.6 293.019 147.4C293.229 146.16 292.299 145.27 292.139 144.13C294.271 144.85 296.18 146.111 297.679 147.79C299.019 149.79 298.879 152.79 302.149 150.13C301.659 149.73 301.419 148.83 301.149 148.51C305.339 148.51 308.269 150.25 310.069 153.89C314.069 162.02 304.219 155.57 303.729 159.8C301.299 159.03 300.219 157.07 298.099 155.9C297.099 155.35 295.249 155.64 294.479 155.08C293.479 154.31 293.689 152.9 292.759 152.13C289.099 149.13 280.759 153.98 277.419 155.91C276.499 156.43 275.539 156.49 274.909 157.48C273.849 159.16 275.349 159.6 275.009 161.17C274.539 163.42 271.599 164.46 270.709 166.26C268.579 170.59 272.909 176.79 272.329 181.59C271.999 184.26 269.129 187.15 270.229 189.39C270.709 190.39 272.359 191.16 272.999 192.3C273.458 193.48 273.986 194.632 274.579 195.75C277.361 199.409 280.328 202.924 283.469 206.28C284.252 207.143 285.259 207.772 286.379 208.097C287.498 208.422 288.685 208.43 289.809 208.12C292.206 207.699 294.552 207.029 296.809 206.12C299.339 204.92 299.669 203.21 302.329 204.36C304.439 205.28 306.329 207.97 308.769 205.74C310.769 207.74 308.549 211.19 308.089 213.41C307.509 216.25 308.629 218.71 310.379 221.12C312.469 224.02 312.959 224.53 312.529 228.4C312.1 231.348 311.52 234.272 310.789 237.16C310.169 240.01 308.349 242.16 308.439 245.21C308.529 248 309.739 250.21 309.369 253.21C309.165 256.023 308.774 258.819 308.199 261.58C307.489 264.23 305.619 266.58 304.839 269.28C304.059 271.98 304.299 275.2 306.099 277.28C307.899 279.36 309.839 278.22 312.039 276.55C316.389 273.25 318.359 267.66 321.249 263.22C324.139 258.78 327.159 254.53 329.129 249.83C329.539 248.83 334.699 248.09 334.359 249.14C329.089 265.82 318.999 282.64 306.239 293.92H306.259Z" fill="url(#paint1_radial_34693_16035)"/>
<path d="M255.35 66.17C244.13 60.64 242 57.7 220.81 54.68C202.192 54.2303 183.67 57.4832 166.32 64.25C135.068 76.402 108.627 98.4059 91 126.93C91.22 126.46 91.43 126 91.67 125.52C103.098 102.218 120.456 82.3325 142 67.86C145.507 65.5 149.103 63.3 152.79 61.26C154.88 60.09 157 58.99 159.15 57.93C159.15 57.93 242.32 18.41 297.15 98.45C285.529 84.9889 271.312 74.0099 255.35 66.17V66.17Z" fill="url(#paint2_linear_34693_16035)"/>
<path d="M297.24 98.5297C330.97 125.31 291.16 126.82 291.16 126.82C289.27 125.76 287.32 124.73 285.34 123.76L284.79 123.49C284.56 123.36 284.34 123.25 284.1 123.14C282.66 122.433 281.213 121.766 279.76 121.14C278.4 120.39 277.03 119.67 275.63 118.98C257.436 110.035 237.089 106.403 216.924 108.499C196.76 110.595 177.595 118.335 161.63 130.83C139.18 131.75 125.69 157.15 125.69 157.15C125.69 157.15 112.23 185.92 95.5796 204.15C105.58 205.82 115.11 204.92 123.87 200.64C122.171 217.838 124.145 235.201 129.662 251.578C135.178 267.956 144.111 282.975 155.87 295.64C163.251 302.255 171.505 307.827 180.4 312.2C185.515 314.838 190.792 317.149 196.2 319.12C212.351 324.027 229.346 325.529 246.108 323.53C262.87 321.532 279.034 316.077 293.58 307.51C294.143 307.105 294.591 306.56 294.88 305.93C295.7 304.16 295.15 301.06 285.8 297.67C271.26 292.39 273.28 283.79 273.28 283.79C273.28 283.79 289.06 305.95 304.71 291.21L305.56 290.43C311.56 285.02 315.85 283.88 319.64 283.56C325.85 283.04 330.64 284.73 339.49 273.34C336.84 304.18 302.49 318.82 284.29 326.69C265.538 335.271 245.172 339.752 224.55 339.833C203.929 339.914 183.528 335.593 164.71 327.16C162.93 326.36 161.15 325.54 159.4 324.68C132.54 311.467 110.294 290.456 95.5688 264.394C80.8442 238.333 74.327 208.435 76.8696 178.61C77.9842 161.123 82.5521 144.031 90.3096 128.32C90.5396 127.85 90.7796 127.39 91.0196 126.93C108.642 98.4089 135.075 76.4054 166.32 64.2497C183.67 57.4829 202.192 54.23 220.81 54.6797C242 57.6797 244.13 60.6797 255.35 66.1697C271.322 74.0062 285.55 84.9853 297.18 98.4497C297.18 98.4497 297.18 98.4497 297.18 98.4497L297.24 98.5297Z" fill="url(#paint3_radial_34693_16035)"/>
<path d="M275.589 119C276.989 119.69 278.359 120.41 279.719 121.16C259.559 112.328 237.137 110.041 215.61 114.623C194.082 119.205 174.534 130.424 159.719 146.7C160.805 142.88 161.832 138.84 162.799 134.58L161.629 130.85C177.59 118.363 196.747 110.627 216.904 108.531C237.061 106.435 257.4 110.064 275.589 119V119Z" fill="url(#paint4_linear_34693_16035)"/>
<path d="M289.32 125.91L291.16 126.82H290.9C290.38 126.51 289.85 126.2 289.32 125.91Z" fill="url(#paint5_radial_34693_16035)"/>
<path d="M96.6191 69.5599C97.6191 68.2599 118.549 40.7199 152.819 61.26C149.139 63.3 145.542 65.5 142.029 67.86C117.219 51.05 97.7291 68.5399 96.6191 69.5599Z" fill="url(#paint6_linear_34693_16035)"/>
<path d="M96.6201 69.5598C97.7301 68.5598 117.22 51.0498 142.03 67.8598C133.813 73.3836 126.168 79.7151 119.21 86.7598C109.21 81.8698 115.84 68.4398 96.5801 69.6098L96.6201 69.5598Z" fill="url(#paint7_linear_34693_16035)"/>
<path d="M161.599 130.8L162.769 134.53C161.809 138.79 160.782 142.83 159.689 146.65C153.389 168.65 144.999 183.53 135.189 192.72C131.827 195.917 128 198.587 123.839 200.64C115.079 204.92 105.529 205.82 95.5488 204.15C112.199 185.89 125.659 157.15 125.659 157.15C125.659 157.15 139.149 131.72 161.599 130.8Z" fill="url(#paint8_linear_34693_16035)"/>
<path d="M123.839 200.64C128 198.587 131.827 195.917 135.189 192.72C131.145 209.371 131.224 226.757 135.418 243.371C139.613 259.984 147.796 275.324 159.26 288.06C170.723 300.796 185.12 310.544 201.202 316.458C217.284 322.372 234.566 324.274 251.549 322C253.829 321.89 256.099 321.71 258.359 321.44C237.79 326.077 216.368 325.281 196.199 319.13C190.791 317.159 185.514 314.848 180.399 312.21C171.511 307.835 163.264 302.263 155.889 295.65C144.121 282.988 135.177 267.969 129.652 251.59C124.127 235.21 122.145 217.843 123.839 200.64V200.64Z" fill="url(#paint9_linear_34693_16035)"/>
<path d="M273.279 283.79C293.129 294.13 287.709 279.11 305.559 290.43L304.709 291.21C289.059 306 273.279 283.79 273.279 283.79Z" fill="url(#paint10_linear_34693_16035)"/>
</g>
<defs>
<radialGradient id="paint0_radial_34693_16035" cx="0" cy="0" r="1" gradientUnits="userSpaceOnUse" gradientTransform="translate(235.143 216.57) scale(104.178 105.23)">
<stop offset="0.1" stop-color="#F813AF"/>
<stop offset="0.7" stop-color="#571264"/>
<stop offset="0.84" stop-color="#2F1251"/>
</radialGradient>
<radialGradient id="paint1_radial_34693_16035" cx="0" cy="0" r="1" gradientUnits="userSpaceOnUse" gradientTransform="translate(231.259 218.3) scale(108.63)">
<stop offset="0.91" stop-color="#2F1251"/>
<stop offset="1" stop-color="#594174"/>
</radialGradient>
<linearGradient id="paint2_linear_34693_16035" x1="195.26" y1="103.19" x2="218.22" y2="-84.26" gradientUnits="userSpaceOnUse">
<stop stop-color="#00ADE4"/>
<stop offset="0.27" stop-color="#80D6F1"/>
</linearGradient>
<radialGradient id="paint3_radial_34693_16035" cx="0" cy="0" r="1" gradientUnits="userSpaceOnUse" gradientTransform="translate(215.48 197.55) scale(140.79)">
<stop stop-color="#2F1251"/>
<stop offset="0.21" stop-color="#243572"/>
<stop offset="0.69" stop-color="#0A8DC5"/>
<stop offset="0.85" stop-color="#00ADE4"/>
</radialGradient>
<linearGradient id="paint4_linear_34693_16035" x1="166.029" y1="116.3" x2="271.359" y2="148.47" gradientUnits="userSpaceOnUse">
<stop stop-color="#6713AF"/>
<stop offset="0.84" stop-color="#00ADE4"/>
</linearGradient>
<radialGradient id="paint5_radial_34693_16035" cx="0" cy="0" r="1" gradientUnits="userSpaceOnUse" gradientTransform="translate(290.23 126.4) scale(0.729999)">
<stop stop-color="#00ADE4"/>
<stop offset="0.85" stop-color="#2F1251"/>
<stop offset="1" stop-color="#442A62"/>
</radialGradient>
<linearGradient id="paint6_linear_34693_16035" x1="100.439" y1="57.06" x2="149.529" y2="72.05" gradientUnits="userSpaceOnUse">
<stop offset="0.27" stop-color="#7DD5F1"/>
<stop offset="1" stop-color="#00ADE4"/>
</linearGradient>
<linearGradient id="paint7_linear_34693_16035" x1="97.6301" y1="66.1598" x2="138.71" y2="78.7098" gradientUnits="userSpaceOnUse">
<stop offset="0.33" stop-color="#00ADE4"/>
<stop offset="0.99" stop-color="#A172CF"/>
<stop offset="1" stop-color="#A471CF"/>
</linearGradient>
<linearGradient id="paint8_linear_34693_16035" x1="110.729" y1="160.27" x2="152.069" y2="176.96" gradientUnits="userSpaceOnUse">
<stop stop-color="#80D6F1"/>
<stop offset="0.55" stop-color="#00ADE4"/>
<stop offset="1" stop-color="#594174"/>
</linearGradient>
<linearGradient id="paint9_linear_34693_16035" x1="204.959" y1="267.91" x2="48.179" y2="220.03" gradientUnits="userSpaceOnUse">
<stop stop-color="#00ADE4"/>
<stop offset="0.1" stop-color="#178AD8"/>
<stop offset="0.31" stop-color="#5232BA"/>
<stop offset="0.38" stop-color="#6713AF"/>
<stop offset="0.87" stop-color="#2F1251"/>
</linearGradient>
<linearGradient id="paint10_linear_34693_16035" x1="272.949" y1="284.87" x2="304.329" y2="294.46" gradientUnits="userSpaceOnUse">
<stop offset="0.26" stop-color="#6713AF"/>
<stop offset="1" stop-color="#00ADE4"/>
</linearGradient>
<clipPath id="clip0_34693_16035">
<rect width="2622.88" height="388" fill="white"/>
</clipPath>
</defs>
</svg>
