<svg xmlns="http://www.w3.org/2000/svg" xmlns:xlink="http://www.w3.org/1999/xlink" viewBox="0 0 2622.88 388"><defs><style>.cls-1{font-size:297.98px;font-family:NasalizationRg-Regular, Nasalization;}.cls-2{letter-spacing:-0.02em;}.cls-3{letter-spacing:0em;}.cls-4{letter-spacing:0.02em;}.cls-5{fill:url(#radial-gradient);}.cls-6{fill:url(#radial-gradient-2);}.cls-7{fill:url(#linear-gradient);}.cls-8{fill:url(#radial-gradient-3);}.cls-9{fill:url(#linear-gradient-2);}.cls-10{fill:url(#radial-gradient-4);}.cls-11{fill:url(#radial-gradient-5);}.cls-12{fill:url(#linear-gradient-3);}.cls-13{fill:url(#linear-gradient-4);}.cls-14{fill:url(#linear-gradient-5);}.cls-15{fill:url(#linear-gradient-6);}.cls-16{fill:url(#linear-gradient-7);}</style><radialGradient id="radial-gradient" cx="245.68" cy="216.57" r="105.23" gradientTransform="translate(-8.08) scale(0.99 1)" gradientUnits="userSpaceOnUse"><stop offset="0.1" stop-color="#f813af"/><stop offset="0.7" stop-color="#571264"/><stop offset="0.84" stop-color="#2f1251"/></radialGradient><radialGradient id="radial-gradient-2" cx="231.26" cy="218.3" r="108.63" gradientUnits="userSpaceOnUse"><stop offset="0.91" stop-color="#2f1251"/><stop offset="1" stop-color="#594174"/></radialGradient><linearGradient id="linear-gradient" x1="195.26" y1="103.19" x2="218.22" y2="-84.26" gradientUnits="userSpaceOnUse"><stop offset="0" stop-color="#00ade4"/><stop offset="0.27" stop-color="#80d6f1"/></linearGradient><radialGradient id="radial-gradient-3" cx="215.48" cy="197.55" r="140.79" gradientUnits="userSpaceOnUse"><stop offset="0" stop-color="#2f1251"/><stop offset="0.21" stop-color="#243572"/><stop offset="0.69" stop-color="#0a8dc5"/><stop offset="0.85" stop-color="#00ade4"/></radialGradient><linearGradient id="linear-gradient-2" x1="166.03" y1="116.3" x2="271.36" y2="148.47" gradientUnits="userSpaceOnUse"><stop offset="0" stop-color="#6713af"/><stop offset="0.84" stop-color="#00ade4"/></linearGradient><radialGradient id="radial-gradient-4" cx="237.53" cy="217.6" r="105.33" gradientUnits="userSpaceOnUse"><stop offset="0" stop-color="#00ade4" stop-opacity="0"/><stop offset="0.85" stop-color="#2f1251" stop-opacity="0"/><stop offset="1" stop-color="#442a62" stop-opacity="0"/></radialGradient><radialGradient id="radial-gradient-5" cx="290.23" cy="126.4" r="0.73" gradientUnits="userSpaceOnUse"><stop offset="0" stop-color="#00ade4"/><stop offset="0.85" stop-color="#2f1251"/><stop offset="1" stop-color="#442a62"/></radialGradient><linearGradient id="linear-gradient-3" x1="100.44" y1="57.06" x2="149.53" y2="72.05" gradientUnits="userSpaceOnUse"><stop offset="0.27" stop-color="#7dd5f1"/><stop offset="1" stop-color="#00ade4"/></linearGradient><linearGradient id="linear-gradient-4" x1="97.63" y1="66.16" x2="138.71" y2="78.71" gradientUnits="userSpaceOnUse"><stop offset="0.33" stop-color="#00ade4"/><stop offset="0.99" stop-color="#a172cf"/><stop offset="1" stop-color="#a471cf"/></linearGradient><linearGradient id="linear-gradient-5" x1="110.73" y1="160.27" x2="152.07" y2="176.96" gradientUnits="userSpaceOnUse"><stop offset="0" stop-color="#80d6f1"/><stop offset="0.55" stop-color="#00ade4"/><stop offset="1" stop-color="#594174"/></linearGradient><linearGradient id="linear-gradient-6" x1="204.96" y1="267.91" x2="48.18" y2="220.03" gradientUnits="userSpaceOnUse"><stop offset="0" stop-color="#00ade4"/><stop offset="0.1" stop-color="#178ad8"/><stop offset="0.31" stop-color="#5232ba"/><stop offset="0.38" stop-color="#6713af"/><stop offset="0.87" stop-color="#2f1251"/></linearGradient><linearGradient id="linear-gradient-7" x1="272.95" y1="284.87" x2="304.33" y2="294.46" gradientUnits="userSpaceOnUse"><stop offset="0.26" stop-color="#6713af"/><stop offset="1" stop-color="#00ade4"/></linearGradient></defs><g id="Layer_13" data-name="Layer 13"><text class="cls-1" transform="translate(386.28 296.27)"><tspan class="cls-2">T</tspan><tspan class="cls-3" x="164.19" y="0">angle O</tspan><tspan class="cls-4" x="1375.15" y="0">f</tspan><tspan x="1492.85" y="0">fline</tspan></text><ellipse class="cls-5" cx="235.5" cy="216.57" rx="104.34" ry="105.23"/><path class="cls-6" d="M231.26,109.67A108.63,108.63,0,0,0,122.63,218.3c0,60,48.64,108.23,108.63,108.63A107.91,107.91,0,0,0,339.89,218.3C339.7,158.3,291.26,109.67,231.26,109.67Zm75,184.25c-19.59,17.37-48.75,28.73-75,27.76-30.84-1.14-56.22-16.8-73.1-30.28-21.58-17.23-30.28-45.49-30.28-73.1a102.7,102.7,0,0,1,30.28-73.11c.46-.45.94-.88,1.4-1.33a12.5,12.5,0,0,1-1.41,3.19c-1.54,2.29-4.1,3.2-5.71,5.35a21.81,21.81,0,0,0-3.19,7.12c-.59,2.38-.23,5.27-1.07,7.65-1.06,3-3,4.8-2.64,8.3,4.2,1.24,2.38-6.22,5.92-6.6,1.12,2.78.39,8,.07,11-.44,4.18-1.26,5.21,1.24,8.8,2,2.84,2.63,4.74,6.45,5.19,3.5.41,5,2,6.42,5.37,2.7.57,4.33,1,4.68,4,1.17.65,3.38,2.76,4.62,3.08,1.79.47,4.78-2.08,6.47-.11,2.83,3.28-3.57,11.86-4.72,14.83-1.67,4.33-1.92,10.7,2.19,13.81,2.11,1.6,4.35,2.37,5,5.27.63,2.68.14,4.91,1.33,7.44,1.85,4,6.09,5.27,9.11,8.29,4,4,3.69,9.12,3.69,14.73,0,5.88,2.24,10.35,3,15.74.8,5.55,2.44,10.7,3.6,16.06.88,4,4.37,10.15,9.41,9.33.35-1.92-1.63-3.42-1.88-5.31-.23-1.72.26-3.51-.09-5.35-.68-3.65-.64-5.8,1.78-9,.85-1.12,2-2,2.91-3.17,1.71-2.18.4-1.53.33-3.92-.09-3,.81-1.51,2.61-2.44.93-.48,2-1.94,2.68-2.68,1.56-1.63,4-3.58,5.19-5.52,1.36-2.17,1.19-5.2,2.59-7.45,1.6-2.58,3.87-2.58,6.11-4.26,2.91-2.18,1.71-4.47,2.24-7.46a34,34,0,0,1,6.3-14.48c4-5,5.66-9.26.84-14.06-2.38-2.38-3.62-1.75-6.79-2.57-2.41-.64-4.58-2.4-7-2.7-1.47-.18-2.34.35-3.68,0s-1.1-1.09-2.42-1.08c-2,0-4.71,4.13-6.37,1.51-.93-1.46,1.88-5.5,1.75-7.46-.16-2.4-1-6.32-3.4-7.63-.89-.5-2.87-.57-4-1a20.35,20.35,0,0,1-3.69-2c-1.5-1-4.4-2.64-5.07-4.35-1.84-.08-3.09-1.09-5-1.07-1.68,0-2.8.8-4.61.6-1.59-.18-3.31-1.44-5-1.2-1.15.16-2.84,1.64-3.84,2.2A26.84,26.84,0,0,1,178.3,203c-4.48.84-5.29-.87-5-5l-.67-1.34c1.66-4.63-1.34-5-4.64-6.08-.46-3.29,3.6-5.65,1.9-9.26-3.43-.18-7.16,9.47-10.07,5.29-1.91-2.75,1-10.46,2.68-12.8s7.87-6.6,10.78-7a4.68,4.68,0,0,1,5.11,2.69c.95,2.16-.29,4.2,0,6.66,2.89-.67,2.14-4.35,2-6.32-.21-3.3,1.52-3.05,3.2-5.42,1.53-2.17,1.77-4.64,3.68-6.73,1.48-1.63,3.23-3.34,4.86-4.84,1.86-1.72,4-1.56,5.87-2.82,2.9-1.92-.94-5.48,3.34-5.22,1.52.1.76,1,2.77.59a31.43,31.43,0,0,0,3.33-1.35c4.08-1.66,1.19-2.1-.68-4.26-2.38-2.74,1-2.26,3.44-2.68,1.81-.3,1.43-.89,3,.17,1.4.94.58,2.18,2.6,2.11,3.87-.13,1.19-4,.33-5.29-1.47-2.2-1.85-3.73-5-3.82a5,5,0,0,0-.1-3.24c-2.62.34-3.07-1.56-5.06-2.31-3.34-1.27-2.8,1.47-4.17,3.33s-4.09,1.59-5.13,3.94,0,4.31-4,3.64a12.87,12.87,0,0,0,.25-4.92,17.41,17.41,0,0,1-3.24-.78c0-3.92,4.35-4.25,7.31-4.63,3.31-.41,4.39-3.78,7.34-4.35,2.76-.53,4.74,3.94,8.14,1.35,1.94-1.48,1-2.34.33-3.77-.19-.38-1.17-1.23-1.43-1.59a.45.45,0,0,1-.06-.12c2.64-.51,5.3-.9,8-1.2a25.8,25.8,0,0,0,2.2,4.25c.44.75,1.26,1.25,1.62,2.07s-.55,2.09.63,2.72c1.82,1,7.12-5.36,8.39-6.39,1.61-1.3,2.62-2,2.24-3.28a104,104,0,0,1,24.85,3.78c.64.8,1.29,1.62,1.95,2.53,1.41,2,2.3,3.73,4.84,4.6,1.48.5,6.18.41,4.22,3.77-1.8,3.1-3.8-1-4.71-1.94-1.26-1.35-5-2.85-4.87.25.17,4.62,10.59,3.88,8.35,9,1.25.73,3.71,1.95,3.31,3.77-.5,2.25-3.43.82-3.37,3.69a6.64,6.64,0,0,0,8.64,5.94c4.39-1.56,1.09-7.65,6.12-8.28,2-.25,3.15.33,4.93,1.74,1.45,1.15,2.38,3.75,4.37,3.55.21-1.24-.72-2.13-.88-3.27a13,13,0,0,1,5.54,3.66c1.34,2,1.2,5,4.47,2.34-.49-.4-.73-1.3-1-1.62,4.19,0,7.12,1.74,8.92,5.38,4,8.13-5.85,1.68-6.34,5.91-2.43-.77-3.51-2.73-5.63-3.9-1-.55-2.85-.26-3.62-.82-1-.77-.79-2.18-1.72-2.95-3.66-3-12,1.85-15.34,3.78-.92.52-1.88.58-2.51,1.57-1.06,1.68.44,2.12.1,3.69-.47,2.25-3.41,3.29-4.3,5.09-2.13,4.33,2.2,10.53,1.62,15.33-.33,2.67-3.2,5.56-2.1,7.8.48,1,2.13,1.77,2.77,2.91a32.66,32.66,0,0,0,1.58,3.45,134.63,134.63,0,0,0,8.89,10.53,6.3,6.3,0,0,0,6.34,1.84,34.88,34.88,0,0,0,7-2c2.53-1.2,2.86-2.91,5.52-1.76,2.11.92,4,3.61,6.44,1.38,2,2-.22,5.45-.68,7.67-.58,2.84.54,5.3,2.29,7.71,2.09,2.9,2.58,3.41,2.15,7.28a86.39,86.39,0,0,1-1.74,8.76c-.62,2.85-2.44,5-2.35,8.05.09,2.79,1.3,5,.93,8a63.6,63.6,0,0,1-1.17,8.37c-.71,2.65-2.58,5-3.36,7.7s-.54,5.92,1.26,8,3.74.94,5.94-.73c4.35-3.3,6.32-8.89,9.21-13.33s5.91-8.69,7.88-13.39c.41-1,5.57-1.74,5.23-.69C329.09,265.82,319,282.64,306.24,293.92Z"/><path class="cls-7" d="M255.35,66.17C244.13,60.64,242,57.7,220.81,54.68a140.62,140.62,0,0,0-54.49,9.57A154.26,154.26,0,0,0,91,126.93c.22-.47.43-.93.67-1.41A147.94,147.94,0,0,1,142,67.86q5.26-3.54,10.79-6.6c2.09-1.17,4.21-2.27,6.36-3.33,0,0,83.17-39.52,138,40.52A132.24,132.24,0,0,0,255.35,66.17Z"/><path class="cls-8" d="M297.24,98.53c33.73,26.78-6.08,28.29-6.08,28.29-1.89-1.06-3.84-2.09-5.82-3.06l-.55-.27h0c-.23-.13-.45-.24-.69-.35q-2.16-1.06-4.34-2c-1.36-.75-2.73-1.47-4.13-2.16a107.8,107.8,0,0,0-114,11.85c-22.45.92-35.94,26.32-35.94,26.32s-13.46,28.77-30.11,47c10,1.67,19.53.77,28.29-3.51a122,122,0,0,0,32,95A108.45,108.45,0,0,0,180.4,312.2a136.2,136.2,0,0,0,15.8,6.92,122,122,0,0,0,97.38-11.61,4,4,0,0,0,1.3-1.58c.82-1.77.27-4.87-9.08-8.26-14.54-5.28-12.52-13.88-12.52-13.88s15.78,22.16,31.43,7.42l.85-.78c6-5.41,10.29-6.55,14.08-6.87,6.21-.52,11,1.17,19.85-10.22-2.65,30.84-37,45.48-55.2,53.35a144.93,144.93,0,0,1-119.58.47c-1.78-.8-3.56-1.62-5.31-2.48A148.71,148.71,0,0,1,76.87,178.61a132.65,132.65,0,0,1,13.44-50.29c.23-.47.47-.93.71-1.39a154.26,154.26,0,0,1,75.3-62.68,140.62,140.62,0,0,1,54.49-9.57c21.19,3,23.32,6,34.54,11.49a132.24,132.24,0,0,1,41.83,32.28,0,0,0,0,0,0,0s0,0,0,0l0,0Z"/><path class="cls-9" d="M275.59,119c1.4.69,2.77,1.41,4.13,2.16a105.19,105.19,0,0,0-120,25.54q1.63-5.73,3.08-12.12l-1.17-3.73A107.8,107.8,0,0,1,275.59,119Z"/><path class="cls-10" d="M280.31,121.44l9,4.47c.53.29,1.06.6,1.58.91a105.37,105.37,0,0,1,28.74,156.74c-3.79.32-8.07,1.46-14.08,6.87-17.85-11.32-12.43,3.7-32.28-6.64,0,0-2,8.6,12.52,13.88,9.35,3.39,9.9,6.49,9.08,8.26A105.32,105.32,0,0,1,135.19,192.72c9.81-9.19,18.2-24,24.5-46.07a105.42,105.42,0,0,1,102.66-31.41A119.69,119.69,0,0,1,280.31,121.44Z"/><path class="cls-11" d="M289.32,125.91l1.84.91h-.26C290.38,126.51,289.85,126.2,289.32,125.91Z"/><path class="cls-12" d="M96.62,69.56c1-1.3,21.93-28.84,56.2-8.3q-5.52,3.06-10.79,6.6C117.22,51.05,97.73,68.54,96.62,69.56Z"/><path class="cls-13" d="M96.62,69.56c1.11-1,20.6-18.51,45.41-1.7a148.56,148.56,0,0,0-22.82,18.9c-10-4.89-3.37-18.32-22.63-17.15Z"/><path class="cls-14" d="M161.6,130.8l1.17,3.73q-1.44,6.39-3.08,12.12c-6.3,22-14.69,36.88-24.5,46.07a46,46,0,0,1-11.35,7.92c-8.76,4.28-18.31,5.18-28.29,3.51,16.65-18.26,30.11-47,30.11-47S139.15,131.72,161.6,130.8Z"/><path class="cls-15" d="M123.84,200.64a46,46,0,0,0,11.35-7.92A105.35,105.35,0,0,0,251.55,322c2.28-.11,4.55-.29,6.81-.56a121.49,121.49,0,0,1-62.16-2.31,136.2,136.2,0,0,1-15.8-6.92,108.45,108.45,0,0,1-24.51-16.56A122,122,0,0,1,123.84,200.64Z"/><path class="cls-16" d="M273.28,283.79c19.85,10.34,14.43-4.68,32.28,6.64l-.85.78C289.06,306,273.28,283.79,273.28,283.79Z"/></g></svg>