<svg width="153" height="40" viewBox="0 0 153 40" fill="none" xmlns="http://www.w3.org/2000/svg">
<path d="M21.7968 37.5246C29.6883 37.5246 36.0857 31.0635 36.0857 23.0933C36.0857 15.1231 29.6883 8.66199 21.7968 8.66199C13.9052 8.66199 7.50781 15.1231 7.50781 23.0933C7.50781 31.0635 13.9052 37.5246 21.7968 37.5246Z" fill="url(#paint0_radial_1510_9044)"/>
<path d="M21.2157 8.43292C17.2701 8.43292 13.4861 10.0024 10.696 12.7962C7.90589 15.59 6.33825 19.3793 6.33789 23.3305C6.33789 31.559 12.9989 38.1746 21.2157 38.2295C23.173 38.2424 25.1134 37.8659 26.9242 37.1217C28.7351 36.3775 30.3802 35.2805 31.7642 33.8944C33.1482 32.5083 34.2435 30.8607 34.9865 29.0473C35.7294 27.2338 36.1052 25.2906 36.0921 23.3305C36.0661 15.1034 29.4311 8.43292 21.2157 8.43292ZM31.4867 33.7025C28.8039 36.0846 24.8092 37.6411 21.2157 37.5095C16.9909 37.3531 13.5166 35.2055 11.2036 33.3569C8.24966 30.9939 7.05686 27.1183 7.05686 23.3305C7.05172 21.4675 7.41557 19.622 8.12735 17.9008C8.83913 16.1795 9.88471 14.6167 11.2036 13.3028C11.2666 13.2397 11.3323 13.1807 11.3967 13.119C11.3522 13.2731 11.2868 13.4203 11.2022 13.5565C10.9927 13.8705 10.6407 13.9967 10.4203 14.2916C10.2177 14.5884 10.0698 14.9191 9.98339 15.268C9.9026 15.5944 9.9519 15.9907 9.83686 16.3158C9.6917 16.7272 9.42602 16.9754 9.47669 17.4554C10.0519 17.6255 9.80263 16.6024 10.2874 16.5489C10.4408 16.9315 10.3395 17.646 10.2956 18.0575C10.2354 18.6293 10.1244 18.772 10.4654 19.2629C10.7393 19.6524 10.8256 19.913 11.3487 19.9747C11.8294 20.0323 12.0335 20.249 12.2279 20.7125C12.5977 20.7907 12.8223 20.8496 12.8702 21.2611C13.0304 21.3502 13.3317 21.6409 13.5015 21.6848C13.7467 21.7493 14.1575 21.3996 14.3889 21.6697C14.7751 22.1196 13.8987 23.2962 13.7426 23.7022C13.5125 24.2974 13.4796 25.1709 14.0411 25.5974C14.3301 25.8169 14.6382 25.9225 14.7258 26.3188C14.8135 26.6877 14.745 26.9935 14.908 27.3405C15.1613 27.8822 15.7433 28.0632 16.1569 28.4774C16.7047 29.026 16.6623 29.7281 16.6623 30.4975C16.6623 31.3039 16.9676 31.9169 17.0731 32.6547C17.1826 33.4172 17.4059 34.1221 17.5661 34.8586C17.6866 35.4071 18.1632 36.2505 18.8548 36.1367C18.9027 35.8748 18.6302 35.6691 18.5959 35.4099C18.5658 35.174 18.6315 34.9285 18.585 34.6748C18.4918 34.1742 18.496 33.8807 18.8274 33.4405C18.9451 33.2869 19.1013 33.1662 19.2272 33.0058C19.4614 32.7068 19.282 32.796 19.2711 32.4682C19.2587 32.0568 19.3834 32.2597 19.6285 32.1336C19.7667 32.0281 19.8902 31.9045 19.9955 31.766C20.2105 31.5425 20.5433 31.2751 20.7076 31.009C20.8939 30.7114 20.8706 30.2945 21.0623 29.9873C21.2814 29.6335 21.5923 29.6335 21.8991 29.4031C22.2962 29.1041 22.1332 28.7901 22.2058 28.38C22.3326 27.6594 22.6278 26.9789 23.0672 26.3942C23.615 25.7085 23.8437 25.1243 23.1822 24.4647C22.8563 24.1396 22.6865 24.226 22.2538 24.1122C21.9237 24.0258 21.6265 23.7844 21.2951 23.7433C21.0938 23.7186 20.9747 23.7913 20.7912 23.7433C20.6077 23.6953 20.6405 23.5938 20.4598 23.5952C20.1859 23.5952 19.8134 24.1602 19.586 23.8009C19.4601 23.6007 19.8435 23.048 19.8271 22.7792C19.8052 22.4501 19.6833 21.9125 19.3601 21.7328C19.2382 21.6643 18.9671 21.6547 18.8123 21.5957C18.6354 21.5208 18.4662 21.429 18.307 21.3214C18.1016 21.1843 17.7044 20.9594 17.614 20.7235C17.362 20.7139 17.1909 20.574 16.9293 20.5781C16.6992 20.5781 16.5458 20.6878 16.2966 20.659C16.0789 20.6357 15.8447 20.4629 15.6119 20.4958C15.4558 20.5178 15.2229 20.7207 15.0874 20.7975C14.7404 21.0017 14.3625 21.1476 13.9685 21.2295C13.3536 21.3447 13.2441 21.1088 13.2838 20.5438L13.192 20.36C13.4207 19.7251 13.0099 19.6743 12.558 19.5262C12.495 19.075 13.0496 18.7514 12.8182 18.2563C12.3485 18.2316 11.8363 19.555 11.4391 18.9818C11.1776 18.6046 11.5761 17.5473 11.8061 17.2264C12.0362 16.9055 12.8839 16.3213 13.2824 16.2664C13.4236 16.2412 13.5691 16.264 13.6959 16.3311C13.8226 16.3982 13.9234 16.5057 13.9822 16.6367C14.1192 16.9329 13.9425 17.2127 13.9822 17.5487C14.3794 17.4568 14.2767 16.9535 14.2561 16.6819C14.2274 16.2307 14.4643 16.2705 14.6943 15.9386C14.9039 15.6424 14.9354 15.3037 15.1969 15.017C15.401 14.7935 15.6393 14.559 15.8625 14.3519C16.1172 14.1174 16.4103 14.1393 16.6664 13.9665C17.0635 13.7032 16.5376 13.2136 17.1238 13.2507C17.3319 13.2644 17.2292 13.3947 17.5045 13.3316C17.6597 13.2782 17.8119 13.2163 17.9605 13.1464C18.5192 12.9188 18.1235 12.8585 17.866 12.5622C17.5401 12.1851 18.003 12.2523 18.3385 12.1947C18.585 12.1535 18.5329 12.0726 18.7493 12.218C18.9397 12.3455 18.8274 12.517 19.1054 12.5074C19.634 12.4895 19.2683 11.9588 19.1506 11.7819C18.9479 11.4802 18.8972 11.2704 18.4658 11.258C18.5121 11.1127 18.5072 10.9559 18.4521 10.8137C18.0933 10.8603 18.0317 10.5997 17.7606 10.4969C17.3032 10.3227 17.3757 10.6985 17.1895 10.9536C17.0032 11.2086 16.628 11.1716 16.487 11.4939C16.3459 11.8162 16.487 12.085 15.9392 11.9931C15.9943 11.7726 16.0064 11.5435 15.9748 11.3184C15.8239 11.2967 15.6753 11.2609 15.5311 11.2114C15.5311 10.6724 16.1268 10.6272 16.5308 10.5764C16.9841 10.5188 17.132 10.058 17.5373 9.97987C17.9153 9.90718 18.1851 10.5202 18.6507 10.165C18.9178 9.96204 18.7877 9.84273 18.6973 9.64799C18.6357 9.57204 18.5703 9.49927 18.5014 9.42994C18.5014 9.42994 18.5014 9.41896 18.4918 9.41348C18.8534 9.34354 19.219 9.29005 19.5874 9.24754C19.6694 9.451 19.7698 9.64655 19.8873 9.83176C19.9476 9.93461 20.0612 10.0032 20.1092 10.1156C20.1571 10.2281 20.0352 10.4023 20.1968 10.4887C20.4461 10.6258 21.1705 9.75359 21.3444 9.61233C21.5663 9.43405 21.7032 9.33805 21.6512 9.16251C22.8048 9.19562 23.95 9.37018 25.0611 9.68227C25.1474 9.79199 25.2378 9.90444 25.3268 10.0292C25.5199 10.3035 25.6432 10.5394 25.991 10.6587C26.1923 10.7287 26.836 10.7163 26.5689 11.1771C26.3211 11.6022 26.0485 11.04 25.9239 10.9111C25.7514 10.7259 25.2392 10.5188 25.2556 10.9453C25.2803 11.5789 26.7059 11.4774 26.4005 12.1796C26.5703 12.2811 26.9086 12.4539 26.8524 12.698C26.7839 13.0052 26.384 12.8091 26.3923 13.2027C26.3992 13.3419 26.4379 13.4776 26.5054 13.5995C26.5729 13.7213 26.6675 13.826 26.7818 13.9055C26.8961 13.985 27.0271 14.0371 27.1647 14.058C27.3023 14.0788 27.4428 14.0677 27.5755 14.0255C28.1767 13.8116 27.7234 12.975 28.4122 12.89C28.6861 12.8557 28.845 12.9353 29.0874 13.1286C29.2859 13.285 29.4133 13.6429 29.6872 13.6141C29.7159 13.4454 29.5872 13.3234 29.5653 13.167C29.8575 13.2653 30.1191 13.4383 30.324 13.669C30.5075 13.9432 30.4883 14.3547 30.9375 13.9899C30.8704 13.935 30.8362 13.8116 30.8006 13.7677C31.3744 13.7677 31.7756 14.0063 32.0221 14.5055C32.5699 15.6191 31.2196 14.7359 31.1525 15.316C30.8197 15.2104 30.6718 14.9416 30.3829 14.7812C30.2459 14.7044 29.9926 14.7455 29.8871 14.6687C29.742 14.5617 29.7776 14.3697 29.6502 14.2573C29.1504 13.8459 28.0069 14.5096 27.5495 14.7757C27.4248 14.847 27.292 14.8552 27.2071 14.9896C27.0606 15.2214 27.266 15.2804 27.2208 15.497C27.1551 15.8056 26.7538 15.9482 26.6319 16.1951C26.3402 16.7889 26.9318 17.6392 26.8524 18.2975C26.8086 18.6636 26.4142 19.06 26.5662 19.3658C26.6306 19.5029 26.8579 19.6099 26.9442 19.7662C27.0073 19.9277 27.08 20.0852 27.1619 20.238C27.5424 20.7402 27.9483 21.2227 28.378 21.6835C28.4852 21.8018 28.6232 21.8881 28.7765 21.9326C28.9297 21.9772 29.0924 21.9783 29.2462 21.9358C29.5745 21.8783 29.8958 21.7864 30.2048 21.6615C30.5513 21.4956 30.5979 21.2624 30.9608 21.4201C31.2511 21.5463 31.5086 21.9152 31.8427 21.6094C32.1166 21.8837 31.8126 22.3568 31.751 22.6599C31.6715 23.0494 31.8249 23.3881 32.0632 23.7186C32.3508 24.1163 32.4179 24.1863 32.359 24.7156C32.3008 25.1201 32.2208 25.5211 32.1193 25.917C32.0344 26.3092 31.7852 26.6027 31.7989 27.0223C31.8112 27.405 31.9769 27.708 31.9263 28.1195C31.897 28.5051 31.8435 28.8885 31.766 29.2673C31.6688 29.6308 31.4127 29.953 31.3045 30.3233C31.1963 30.6936 31.2319 31.1352 31.4784 31.4204C31.7249 31.7057 31.9906 31.5507 32.2919 31.3217C32.8862 30.8691 33.1574 30.1025 33.5518 29.4922C33.9462 28.882 34.3625 28.3019 34.6309 27.6559C34.6885 27.5188 35.3937 27.4187 35.3485 27.5627C34.6131 29.8488 33.2272 32.1541 31.4839 33.7025H31.4867Z" fill="url(#paint1_radial_1510_9044)"/>
<path d="M24.5141 2.4687C22.9789 1.71168 22.6872 1.30849 19.784 0.894325C17.2358 0.831884 14.7006 1.27755 12.3259 2.20539C8.0455 3.87149 4.42392 6.88919 2.00977 10.8014C2.03989 10.7369 2.07002 10.6725 2.10152 10.608C3.66698 7.41217 6.04451 4.68505 8.99538 2.70047C9.47743 2.37682 9.97044 2.07511 10.4744 1.79534C10.7602 1.63534 11.0505 1.48266 11.3454 1.33729C11.3454 1.33729 22.7352 -4.08114 30.2439 6.8956C28.6504 5.04941 26.7017 3.5438 24.5141 2.4687Z" fill="url(#paint2_linear_1510_9044)"/>
<path d="M30.2514 6.90657C34.8705 10.5792 29.4201 10.7863 29.4201 10.7863C29.1599 10.6409 28.8942 10.4997 28.6217 10.3653L28.5464 10.3296L28.4533 10.283C28.2547 10.1842 28.0575 10.0937 27.8575 10.0087C27.6576 9.92366 27.4837 9.80709 27.292 9.71247C24.8005 8.48565 22.0142 7.98724 19.2527 8.27445C16.4912 8.56166 13.8666 9.62286 11.6801 11.3362C8.60293 11.4583 6.75416 14.9485 6.75416 14.9485C6.75416 14.9485 4.91224 18.894 2.63209 21.3941C4.00155 21.6231 5.30664 21.4997 6.50629 20.9127C6.27362 23.2713 6.54398 25.6524 7.29947 27.8985C8.05496 30.1445 9.27833 32.2042 10.8886 33.9411C11.9009 34.8465 13.0326 35.6084 14.252 36.2053C14.9525 36.5667 15.6752 36.8832 16.4157 37.1529C19.1762 37.9988 22.1091 38.1099 24.9255 37.4752C26.6227 37.0928 28.2503 36.4488 29.7501 35.5662C29.8269 35.5103 29.8881 35.4357 29.9282 35.3495C30.0391 35.1068 29.9651 34.6817 28.6833 34.2168C26.6921 33.4927 26.9701 32.3132 26.9701 32.3132C26.9701 32.3132 29.1311 35.3523 31.273 33.3308L31.3907 33.2225C32.2124 32.4819 32.7999 32.3256 33.3176 32.2817C34.168 32.2104 34.824 32.4408 36.0373 30.8801C35.6744 35.1095 30.9703 37.1159 28.4779 38.1966C25.9101 39.3737 23.121 39.9885 20.297 39.9998C17.473 40.0112 14.679 39.4189 12.1019 38.2624C11.8581 38.1541 11.6157 38.0416 11.3747 37.9223C7.69622 36.1103 4.64953 33.2286 2.63324 29.6542C0.616945 26.0798 -0.275056 21.9792 0.0739349 17.8888C0.227139 15.4903 0.854137 13.1461 1.9186 10.992C1.9501 10.9275 1.98296 10.8644 2.01583 10.8014C4.42858 6.8901 8.04811 3.8725 12.3265 2.20539C14.7019 1.27672 17.2381 0.830581 19.7873 0.89295C22.6906 1.30437 22.9823 1.71579 24.5174 2.46733C26.7046 3.54298 28.6529 5.04906 30.2459 6.8956V6.8956L30.2514 6.90657Z" fill="url(#paint3_radial_1510_9044)"/>
<path d="M27.2859 9.70701C27.4776 9.80163 27.6652 9.90038 27.8515 10.0032C25.0908 8.79157 22.02 8.47781 19.0719 9.10617C16.1237 9.73454 13.4467 11.2733 11.418 13.5058C11.5672 12.9819 11.7097 12.4279 11.8411 11.8437L11.6809 11.3308C13.8667 9.61874 16.4901 8.55832 19.2502 8.27113C22.0103 7.98393 24.7953 8.48158 27.2859 9.70701V9.70701Z" fill="url(#paint4_linear_1510_9044)"/>
<path d="M29.1699 10.6601L29.4233 10.7863H29.3863C29.3069 10.7424 29.2398 10.6971 29.1699 10.6601Z" fill="url(#paint5_radial_1510_9044)"/>
<path d="M2.77734 2.93363C2.90744 2.75534 5.78057 -1.02151 10.4737 1.79536C9.96975 2.07513 9.47674 2.37684 8.99469 2.70049C5.59843 0.395153 2.92798 2.79237 2.77734 2.93363Z" fill="url(#paint6_linear_1510_9044)"/>
<path d="M2.78028 2.93358C2.93093 2.79644 5.60137 0.395107 8.99763 2.70044C7.87197 3.45756 6.82502 4.3259 5.87253 5.2924C4.50307 4.62041 5.41102 2.77861 2.77344 2.93907L2.78028 2.93358Z" fill="url(#paint7_linear_1510_9044)"/>
<path d="M11.6781 11.3307L11.8383 11.8437C11.7014 12.4279 11.5644 12.9819 11.4152 13.5058C10.5524 16.5229 9.40479 18.5635 8.06135 19.8239C7.60031 20.2616 7.07638 20.6277 6.50701 20.91C5.30737 21.497 3.99953 21.6204 2.63281 21.3914C4.91296 18.8872 6.75489 14.9458 6.75489 14.9458C6.75489 14.9458 8.60366 11.4583 11.6781 11.3307Z" fill="url(#paint8_linear_1510_9044)"/>
<path d="M6.50607 20.91C7.07544 20.6277 7.59936 20.2616 8.06041 19.8239C7.50652 22.1072 7.51721 24.4913 8.09154 26.7695C8.66588 29.0477 9.78651 31.1513 11.3563 32.8977C12.926 34.6441 14.8975 35.9807 17.0998 36.7915C19.302 37.6023 21.6685 37.8629 23.9941 37.5507C24.3063 37.5369 24.6185 37.5123 24.9267 37.4752C22.1102 38.1114 19.1768 38.0018 16.4155 37.1571C15.675 36.8873 14.9523 36.5708 14.2517 36.2094C13.0338 35.6095 11.9039 34.8449 10.8938 33.937C9.28279 32.2007 8.05852 30.1415 7.30209 27.8957C6.54565 25.6499 6.27432 23.2687 6.50607 20.91V20.91Z" fill="url(#paint9_linear_1510_9044)"/>
<path d="M26.9727 32.3132C29.6897 33.7313 28.9474 31.6714 31.3933 33.2225L31.2755 33.3308C29.1337 35.3523 26.9727 32.3132 26.9727 32.3132Z" fill="url(#paint10_linear_1510_9044)"/>
<path d="M48.6719 11.0449C48.6719 10.5273 48.8525 10.083 49.2139 9.71191C49.585 9.35059 50.0293 9.16992 50.5469 9.16992C51.0645 9.16992 51.5039 9.35059 51.8652 9.71191C52.2363 10.083 52.4219 10.5273 52.4219 11.0449V13.7256H59.1016C59.6191 13.7256 60.0635 13.9062 60.4346 14.2676C60.7959 14.6387 60.9766 15.083 60.9766 15.6006C60.9766 16.1182 60.7959 16.5625 60.4346 16.9336C60.0635 17.2949 59.6191 17.4756 59.1016 17.4756H52.4219V23.4229C52.4219 24.1943 52.6953 24.8584 53.2422 25.415C53.7988 25.9619 54.4629 26.2354 55.2344 26.2354C55.8203 26.2354 56.3525 26.0742 56.8311 25.752C57.3096 25.4297 57.6562 24.9951 57.8711 24.4482C58.0566 23.9697 58.3887 23.623 58.8672 23.4082C59.3359 23.2031 59.8145 23.1934 60.3027 23.3789C60.7812 23.5742 61.1279 23.9062 61.3428 24.375C61.5479 24.8535 61.5576 25.332 61.3721 25.8105C60.874 27.0703 60.0635 28.0859 58.9404 28.8574C57.8271 29.6191 56.5918 30 55.2344 30C53.418 30 51.8701 29.3604 50.5908 28.0811C49.3115 26.8018 48.6719 25.249 48.6719 23.4229V11.0449ZM81.0326 27.8906C81.0326 28.4766 80.8227 28.9746 80.4027 29.3848C79.9926 29.7949 79.4994 30 78.9232 30C78.0053 30 77.3607 29.5801 76.9896 28.7402C75.6225 29.5801 74.1332 30 72.5219 30C70.1781 30 68.1762 29.1699 66.516 27.5098C64.8559 25.8496 64.0258 23.8477 64.0258 21.5039C64.0258 19.1504 64.8559 17.1436 66.516 15.4834C68.1762 13.8232 70.1781 12.9932 72.5219 12.9932C74.8754 12.9932 76.8822 13.8232 78.5424 15.4834C80.2025 17.1436 81.0326 19.1504 81.0326 21.5039V27.8906ZM75.5541 18.4717C74.7143 17.6318 73.7035 17.2119 72.5219 17.2119C71.3402 17.2119 70.3344 17.6318 69.5043 18.4717C68.6645 19.3115 68.2445 20.3223 68.2445 21.5039C68.2445 22.6855 68.6645 23.6963 69.5043 24.5361C70.3344 25.3662 71.3402 25.7812 72.5219 25.7812C73.7035 25.7812 74.7143 25.3662 75.5541 24.5361C76.3939 23.6963 76.8139 22.6855 76.8139 21.5039C76.8139 20.3223 76.3939 19.3115 75.5541 18.4717ZM101.748 27.8906C101.748 28.4766 101.538 28.9746 101.118 29.3848C100.708 29.7949 100.215 30 99.6385 30C99.0525 30 98.5545 29.7949 98.1443 29.3848C97.7342 28.9746 97.5291 28.4766 97.5291 27.8906V21.5039C97.5291 20.3223 97.1092 19.3115 96.2693 18.4717C95.4295 17.6318 94.4188 17.2119 93.2371 17.2119C92.0555 17.2119 91.0496 17.6318 90.2195 18.4717C89.3797 19.3115 88.9598 20.3223 88.9598 21.5039V27.8906C88.9598 28.4766 88.7547 28.9746 88.3445 29.3848C87.9344 29.7949 87.4363 30 86.8504 30C86.2645 30 85.7664 29.7949 85.3563 29.3848C84.9461 28.9746 84.741 28.4766 84.741 27.8906V21.5039C84.741 19.1504 85.5711 17.1436 87.2313 15.4834C88.8914 13.8232 90.8934 12.9932 93.2371 12.9932C95.5906 12.9932 97.5975 13.8232 99.2576 15.4834C100.918 17.1436 101.748 19.1504 101.748 21.5039V27.8906ZM121.877 28.6523C121.877 30.9961 121.047 32.998 119.387 34.6582C117.727 36.3184 115.72 37.1484 113.366 37.1484C112.136 37.1484 110.954 36.8896 109.821 36.3721C108.698 35.8545 107.732 35.1221 106.921 34.1748C106.54 33.7256 106.369 33.2129 106.408 32.6367C106.457 32.0605 106.701 31.582 107.141 31.2012C107.58 30.8203 108.093 30.6543 108.679 30.7031C109.255 30.752 109.734 30.9961 110.114 31.4355C110.525 31.9141 111.013 32.2852 111.579 32.5488C112.136 32.8027 112.732 32.9297 113.366 32.9297C114.548 32.9297 115.559 32.5098 116.399 31.6699C117.18 30.8887 117.595 29.9463 117.644 28.8428C116.325 29.6045 114.9 29.9854 113.366 29.9854C111.023 29.9854 109.021 29.1553 107.361 27.4951C105.7 25.835 104.87 23.833 104.87 21.4893C104.87 19.1455 105.7 17.1436 107.361 15.4834C109.021 13.8232 111.023 12.9932 113.366 12.9932C115.72 12.9932 117.727 13.8232 119.387 15.4834C121.047 17.1436 121.877 19.1455 121.877 21.4893V28.6523ZM116.399 18.457C115.559 17.627 114.548 17.2119 113.366 17.2119C112.185 17.2119 111.179 17.627 110.349 18.457C109.509 19.2969 109.089 20.3076 109.089 21.4893C109.089 22.6709 109.509 23.6816 110.349 24.5215C111.179 25.3516 112.185 25.7666 113.366 25.7666C114.548 25.7666 115.559 25.3516 116.399 24.5215C117.238 23.6816 117.658 22.6709 117.658 21.4893C117.658 20.3076 117.238 19.2969 116.399 18.457ZM130.39 27.8906C130.39 28.4766 130.185 28.9746 129.775 29.3848C129.365 29.7949 128.867 30 128.281 30C127.695 30 127.197 29.7949 126.787 29.3848C126.377 28.9746 126.171 28.4766 126.171 27.8906V11.2793C126.171 10.6934 126.377 10.1953 126.787 9.78516C127.197 9.375 127.695 9.16992 128.281 9.16992C128.867 9.16992 129.365 9.375 129.775 9.78516C130.185 10.1953 130.39 10.6934 130.39 11.2793V27.8906ZM145.451 25.0049C145.91 24.6338 146.442 24.4678 147.048 24.5068C147.673 24.5459 148.166 24.7852 148.527 25.2246C148.898 25.6641 149.04 26.1572 148.952 26.7041C148.874 27.2217 148.605 27.6709 148.146 28.0518C147.395 28.6768 146.545 29.1602 145.598 29.502C144.66 29.834 143.703 30 142.727 30C140.383 30 138.381 29.1699 136.721 27.5098C135.061 25.8496 134.23 23.8477 134.23 21.5039C134.23 19.1504 135.061 17.1436 136.721 15.4834C138.381 13.8232 140.383 12.9932 142.727 12.9932C145.08 12.9932 147.087 13.8232 148.747 15.4834C150.407 17.1436 151.237 19.1504 151.237 21.5039C151.237 22.5879 150.534 23.1299 149.128 23.1299H138.801C139.006 23.9502 139.406 24.6094 140.002 25.1074C140.715 25.6934 141.623 25.9863 142.727 25.9863C143.762 25.9863 144.67 25.6592 145.451 25.0049ZM146.477 19.8633C145.725 17.9492 144.475 16.9922 142.727 16.9922C140.793 16.9922 139.46 17.9492 138.728 19.8633H146.477Z" fill="white"/>
<defs>
<radialGradient id="paint0_radial_1510_9044" cx="0" cy="0" r="1" gradientUnits="userSpaceOnUse" gradientTransform="translate(21.7646 23.0933) scale(14.2667 14.4313)">
<stop offset="0.1" stop-color="#F813AF"/>
<stop offset="0.7" stop-color="#571264"/>
<stop offset="0.84" stop-color="#2F1251"/>
</radialGradient>
<radialGradient id="paint1_radial_1510_9044" cx="0" cy="0" r="1" gradientUnits="userSpaceOnUse" gradientTransform="translate(21.2157 23.3319) scale(14.8764 14.8976)">
<stop offset="0.91" stop-color="#2F1251"/>
<stop offset="1" stop-color="#594174"/>
</radialGradient>
<linearGradient id="paint2_linear_1510_9044" x1="16.2864" y1="7.54428" x2="19.4381" y2="-18.1617" gradientUnits="userSpaceOnUse">
<stop stop-color="#00ADE4"/>
<stop offset="0.27" stop-color="#80D6F1"/>
</linearGradient>
<radialGradient id="paint3_radial_1510_9044" cx="0" cy="0" r="1" gradientUnits="userSpaceOnUse" gradientTransform="translate(19.056 20.4862) scale(19.2806 19.308)">
<stop stop-color="#2F1251"/>
<stop offset="0.21" stop-color="#243572"/>
<stop offset="0.69" stop-color="#0A8DC5"/>
<stop offset="0.85" stop-color="#00ADE4"/>
</radialGradient>
<linearGradient id="paint4_linear_1510_9044" x1="12.2821" y1="9.34358" x2="26.7115" y2="13.7439" gradientUnits="userSpaceOnUse">
<stop stop-color="#6713AF"/>
<stop offset="0.84" stop-color="#00ADE4"/>
</linearGradient>
<radialGradient id="paint5_radial_1510_9044" cx="0" cy="0" r="1" gradientUnits="userSpaceOnUse" gradientTransform="translate(29.2904 10.7287) scale(0.0999709 0.100113)">
<stop stop-color="#00ADE4"/>
<stop offset="0.85" stop-color="#2F1251"/>
<stop offset="1" stop-color="#442A62"/>
</radialGradient>
<linearGradient id="paint6_linear_1510_9044" x1="3.29911" y1="1.21937" x2="10.0234" y2="3.26977" gradientUnits="userSpaceOnUse">
<stop offset="0.27" stop-color="#7DD5F1"/>
<stop offset="1" stop-color="#00ADE4"/>
</linearGradient>
<linearGradient id="paint7_linear_1510_9044" x1="2.91723" y1="2.4673" x2="8.5457" y2="4.18395" gradientUnits="userSpaceOnUse">
<stop offset="0.33" stop-color="#00ADE4"/>
<stop offset="0.99" stop-color="#A172CF"/>
<stop offset="1" stop-color="#A471CF"/>
</linearGradient>
<linearGradient id="paint8_linear_1510_9044" x1="4.71165" y1="15.3737" x2="10.3739" y2="17.6556" gradientUnits="userSpaceOnUse">
<stop stop-color="#80D6F1"/>
<stop offset="0.55" stop-color="#00ADE4"/>
<stop offset="1" stop-color="#594174"/>
</linearGradient>
<linearGradient id="paint9_linear_1510_9044" x1="17.6151" y1="30.1355" x2="-3.86046" y2="23.5862" gradientUnits="userSpaceOnUse">
<stop stop-color="#00ADE4"/>
<stop offset="0.1" stop-color="#178AD8"/>
<stop offset="0.31" stop-color="#5232BA"/>
<stop offset="0.38" stop-color="#6713AF"/>
<stop offset="0.87" stop-color="#2F1251"/>
</linearGradient>
<linearGradient id="paint10_linear_1510_9044" x1="26.9275" y1="32.4613" x2="31.2259" y2="33.7717" gradientUnits="userSpaceOnUse">
<stop offset="0.26" stop-color="#6713AF"/>
<stop offset="1" stop-color="#00ADE4"/>
</linearGradient>
</defs>
</svg>
