<?xml version="1.0" encoding="UTF-8"?>
<svg id="Layer_2" data-name="Layer 2" xmlns="http://www.w3.org/2000/svg" viewBox="0 0 661 694">
  <defs>
    <style>
      .cls-1 {
        fill: #f4f4f4;
      }

      .cls-2 {
        fill: #fff;
      }
    </style>
  </defs>
  <g>
    <path class="cls-2" d="M514.97,347.46c2.47,26.86-6.58,54.57-27.14,75.13-4.61,4.61-9.59,8.65-14.84,12.11-7.49,18.36-18.69,35.56-33.59,50.47-19.55,19.55-43.07,32.72-67.96,39.52-11.33,3.1-22.95,4.87-34.61,5.32-15.64,.61-31.36-1.17-46.56-5.32-19.1-5.22-32.72-8.3-42.15-18.67-9.42-10.36,3.85-9.62,12.02-12.02,9.41-2.76,19.14-6.9,28.85-11.92,12.76-6.61,25.5-14.76,37.45-23.37,8.67-6.24,16.83-12.64,24.39-18.95l.04-.04c-3.53-25.52,3.43-52.13,20.87-73.02,2.7,13.11,8.05,25.59,16.39,36.8l.08,.07c27.88-36.83,25.03-89.52-8.56-123.11-7.89-7.8-17.89-17.97-28.37-29.03l38.55-23.34c19.57,14.7,37.35,29.34,49.57,39.99,21.61,21.61,35.43,48.06,41.46,75.86,2.13,9.85,3.29,19.88,3.47,29.92,7.86-4.24,15.25-9.69,21.89-16.33,3.19-3.19,6.11-6.56,8.75-10.07Z"/>
    <path class="cls-2" d="M405.1,187.83c8.65,7.74,2.92,11.78-4.65,14.43-9.39,3.3-19.03,7.65-28.62,12.68-11.9,6.24-23.73,13.51-34.91,21.09-9.78,6.62-19.01,13.42-27.42,20l-.02,.03c3.27,25.26-3.67,51.84-20.92,72.51-2.75-13.35-8.51-26.31-17.11-37.67l-.04,.04c-27.98,36.84-25.09,89.54,8.53,123.16,8.41,7.38,19.09,17.2,30.16,28.07l-41.37,25.1c-19.66-14.97-36.74-29.71-47.83-40.09-21.61-21.6-35.43-48.05-41.46-75.85-2.01-9.29-3.16-18.73-3.43-28.19-8.14,4.3-15.79,9.87-22.64,16.72-2.72,2.72-5.24,5.57-7.56,8.52-1.56-25.92,7.56-52.36,27.36-72.16,3.79-3.79,7.81-7.18,12.03-10.18,7.43-20.42,19.33-39.57,35.7-55.94,19.41-19.4,42.72-32.53,67.4-39.37,12.65-3.51,25.67-5.36,38.7-5.57,13.88-.22,27.78,1.43,41.3,4.96,19.26,5.02,28.16,9.97,36.8,17.71Z"/>
    <path class="cls-2" d="M376.82,92.37c14.41,14.41,32.33,23.16,51.01,26.26-23-1.92-36.35-1.26-56.27-14.9-20.52-12.7-32.67-16.75-56.26-14.9,11.86-11.23,15.28-19.29,17.21-35.94,3.27-16.16,7.75-23.59,17.2-35.94-1.53,16.09,1.08,32.51,7.82,47.51,4.55,10.12,10.98,19.6,19.29,27.91Z"/>
    <path class="cls-2" d="M347.32,548.82l24.68-3.09c-2.19,20.62-11.2,40.66-27,56.46,10.84-16.59,9.88-35.47,2.32-53.37Z"/>
    <path class="cls-2" d="M295.36,588.9c18.17,14.35,29.39,14.63,49.64,13.29-10.86,11.44-14.26,19.95-17.37,37.43-3.16,17.47-7.35,25.36-17.37,37.43,2.16-17.04-.33-34.55-7.49-50.49-4.55-10.11-10.98-19.59-19.29-27.9-10.96-10.96-23.94-18.65-37.75-23.06,20.39,1.14,31.9,1.51,49.63,13.3Z"/>
    <path class="cls-2" d="M315.95,147.11l-28.12,4.79c.82-22.91,9.98-45.58,27.47-63.07-14.48,14.74-10.73,36.5,.65,58.28Z"/>
  </g>
</svg>