<?xml version="1.0" encoding="utf-8"?>
<!-- Generator: Adobe Illustrator 27.2.0, SVG Export Plug-In . SVG Version: 6.00 Build 0)  -->
<svg version="1.1" id="Capa_1" xmlns="http://www.w3.org/2000/svg" xmlns:xlink="http://www.w3.org/1999/xlink" x="0px" y="0px"
	 viewBox="0 0 153 40" style="enable-background:new 0 0 153 40;" xml:space="preserve">
<style type="text/css">
	.st0{fill:url(#SVGID_1_);}
	.st1{fill:url(#SVGID_00000133502400356227909160000017860075304556657059_);}
	.st2{fill:url(#SVGID_00000090287179365144885940000008152585288923655318_);}
	.st3{fill:url(#SVGID_00000013872075258605766270000014812615744013544849_);}
	.st4{fill:url(#SVGID_00000121971094291241713570000000760159769915857835_);}
	.st5{fill:url(#SVGID_00000103982719575563346290000001380580340232583330_);}
	.st6{fill:url(#SVGID_00000163772039307540204750000012411206901084778173_);}
	.st7{fill:url(#SVGID_00000019636557205729014580000012032070762027833517_);}
	.st8{fill:url(#SVGID_00000091732619804858107050000002193683943787367303_);}
	.st9{fill:url(#SVGID_00000042716899589268817840000018204602872568915328_);}
	.st10{fill:url(#SVGID_00000098911184306993074430000007276560648366094224_);}
	.st11{fill:#FFFFFF;}
</style>
<g>
	
		<radialGradient id="SVGID_1_" cx="-205.4476" cy="413.103" r="1" gradientTransform="matrix(14.2667 0 0 -14.4313 2953.7053 5984.707)" gradientUnits="userSpaceOnUse">
		<stop  offset="0.1" style="stop-color:#F813AF"/>
		<stop  offset="0.7" style="stop-color:#571264"/>
		<stop  offset="0.84" style="stop-color:#2F1251"/>
	</radialGradient>
	<path class="st0" d="M22.7,37.5c7.9,0,14.3-6.5,14.3-14.4S30.6,8.7,22.7,8.7c-7.9,0-14.3,6.5-14.3,14.4S14.8,37.5,22.7,37.5z"/>
	
		<radialGradient id="SVGID_00000134231719250319445930000016836975722476743298_" cx="-206.085" cy="413.9728" r="1.0001" gradientTransform="matrix(14.8764 0 0 -14.8976 3087.9001 6190.5322)" gradientUnits="userSpaceOnUse">
		<stop  offset="0.91" style="stop-color:#2F1251"/>
		<stop  offset="1" style="stop-color:#594174"/>
	</radialGradient>
	<path style="fill:url(#SVGID_00000134231719250319445930000016836975722476743298_);" d="M22.1,8.4c-3.9,0-7.7,1.6-10.5,4.4
		c-2.8,2.8-4.4,6.6-4.4,10.5c0,8.2,6.7,14.8,14.9,14.9c2,0,3.9-0.4,5.7-1.1c1.8-0.7,3.5-1.8,4.8-3.2c1.4-1.4,2.5-3,3.2-4.8
		c0.7-1.8,1.1-3.8,1.1-5.7C36.9,15.1,30.3,8.4,22.1,8.4z M32.4,33.7c-2.7,2.4-6.7,3.9-10.3,3.8c-4.2-0.2-7.7-2.3-10-4.2
		c-3-2.4-4.1-6.2-4.1-10c0-1.9,0.4-3.7,1.1-5.4c0.7-1.7,1.8-3.3,3.1-4.6c0.1-0.1,0.1-0.1,0.2-0.2c0,0.2-0.1,0.3-0.2,0.4
		c-0.2,0.3-0.6,0.4-0.8,0.7c-0.2,0.3-0.4,0.6-0.4,1c-0.1,0.3,0,0.7-0.1,1c-0.1,0.4-0.4,0.7-0.4,1.1c0.6,0.2,0.3-0.9,0.8-0.9
		c0.2,0.4,0.1,1.1,0,1.5c-0.1,0.6-0.2,0.7,0.2,1.2c0.3,0.4,0.4,0.7,0.9,0.7c0.5,0.1,0.7,0.3,0.9,0.7c0.4,0.1,0.6,0.1,0.6,0.5
		c0.2,0.1,0.5,0.4,0.6,0.4c0.2,0.1,0.7-0.3,0.9,0c0.4,0.4-0.5,1.6-0.6,2c-0.2,0.6-0.3,1.5,0.3,1.9c0.3,0.2,0.6,0.3,0.7,0.7
		c0.1,0.4,0,0.7,0.2,1c0.3,0.5,0.8,0.7,1.2,1.1c0.5,0.5,0.5,1.3,0.5,2c0,0.8,0.3,1.4,0.4,2.2c0.1,0.8,0.3,1.5,0.5,2.2
		c0.1,0.5,0.6,1.4,1.3,1.3c0-0.3-0.2-0.5-0.3-0.7c0-0.2,0-0.5,0-0.7c-0.1-0.5-0.1-0.8,0.2-1.2c0.1-0.2,0.3-0.3,0.4-0.4
		c0.2-0.3,0.1-0.2,0-0.5c0-0.4,0.1-0.2,0.4-0.3c0.1-0.1,0.3-0.2,0.4-0.4c0.2-0.2,0.5-0.5,0.7-0.8c0.2-0.3,0.2-0.7,0.4-1
		c0.2-0.4,0.5-0.4,0.8-0.6c0.4-0.3,0.2-0.6,0.3-1c0.1-0.7,0.4-1.4,0.9-2c0.5-0.7,0.8-1.3,0.1-1.9c-0.3-0.3-0.5-0.2-0.9-0.4
		c-0.3-0.1-0.6-0.3-1-0.4c-0.2,0-0.3,0-0.5,0s-0.2-0.1-0.3-0.1c-0.3,0-0.6,0.6-0.9,0.2c-0.1-0.2,0.3-0.8,0.2-1c0-0.3-0.1-0.9-0.5-1
		c-0.1-0.1-0.4-0.1-0.5-0.1c-0.2-0.1-0.3-0.2-0.5-0.3c-0.2-0.1-0.6-0.4-0.7-0.6c-0.3,0-0.4-0.1-0.7-0.1c-0.2,0-0.4,0.1-0.6,0.1
		c-0.2,0-0.5-0.2-0.7-0.2c-0.2,0-0.4,0.2-0.5,0.3c-0.3,0.2-0.7,0.4-1.1,0.4c-0.6,0.1-0.7-0.1-0.7-0.7l-0.1-0.2
		c0.2-0.6-0.2-0.7-0.6-0.8c-0.1-0.5,0.5-0.8,0.3-1.3c-0.5,0-1,1.3-1.4,0.7c-0.3-0.4,0.1-1.4,0.4-1.8c0.2-0.3,1.1-0.9,1.5-1
		c0.1,0,0.3,0,0.4,0.1c0.1,0.1,0.2,0.2,0.3,0.3c0.1,0.3,0,0.6,0,0.9c0.4-0.1,0.3-0.6,0.3-0.9c0-0.5,0.2-0.4,0.4-0.7
		c0.2-0.3,0.2-0.6,0.5-0.9c0.2-0.2,0.4-0.5,0.7-0.7c0.3-0.2,0.5-0.2,0.8-0.4c0.4-0.3-0.1-0.8,0.5-0.7c0.2,0,0.1,0.1,0.4,0.1
		c0.2-0.1,0.3-0.1,0.5-0.2c0.6-0.2,0.2-0.3-0.1-0.6c-0.3-0.4,0.1-0.3,0.5-0.4c0.2,0,0.2-0.1,0.4,0c0.2,0.1,0.1,0.3,0.4,0.3
		c0.5,0,0.2-0.5,0-0.7c-0.2-0.3-0.3-0.5-0.7-0.5c0-0.1,0-0.3,0-0.4c-0.4,0-0.4-0.2-0.7-0.3c-0.5-0.2-0.4,0.2-0.6,0.5
		c-0.2,0.3-0.6,0.2-0.7,0.5c-0.1,0.3,0,0.6-0.5,0.5c0.1-0.2,0.1-0.4,0-0.7c-0.2,0-0.3-0.1-0.4-0.1c0-0.5,0.6-0.6,1-0.6
		c0.5-0.1,0.6-0.5,1-0.6c0.4-0.1,0.6,0.5,1.1,0.2c0.3-0.2,0.1-0.3,0-0.5c-0.1-0.1-0.1-0.1-0.2-0.2c0,0,0,0,0,0
		c0.4-0.1,0.7-0.1,1.1-0.2c0.1,0.2,0.2,0.4,0.3,0.6c0.1,0.1,0.2,0.2,0.2,0.3c0,0.1-0.1,0.3,0.1,0.4c0.2,0.1,1-0.7,1.1-0.9
		c0.2-0.2,0.4-0.3,0.3-0.4c1.2,0,2.3,0.2,3.4,0.5c0.1,0.1,0.2,0.2,0.3,0.3c0.2,0.3,0.3,0.5,0.7,0.6c0.2,0.1,0.8,0.1,0.6,0.5
		c-0.2,0.4-0.5-0.1-0.6-0.3c-0.2-0.2-0.7-0.4-0.7,0c0,0.6,1.5,0.5,1.1,1.2c0.2,0.1,0.5,0.3,0.5,0.5c-0.1,0.3-0.5,0.1-0.5,0.5
		c0,0.1,0,0.3,0.1,0.4c0.1,0.1,0.2,0.2,0.3,0.3c0.1,0.1,0.2,0.1,0.4,0.2c0.1,0,0.3,0,0.4,0c0.6-0.2,0.1-1.1,0.8-1.1
		c0.3,0,0.4,0,0.7,0.2c0.2,0.2,0.3,0.5,0.6,0.5c0-0.2-0.1-0.3-0.1-0.4c0.3,0.1,0.6,0.3,0.8,0.5c0.2,0.3,0.2,0.7,0.6,0.3
		c-0.1-0.1-0.1-0.2-0.1-0.2c0.6,0,1,0.2,1.2,0.7c0.5,1.1-0.8,0.2-0.9,0.8c-0.3-0.1-0.5-0.4-0.8-0.5c-0.1-0.1-0.4,0-0.5-0.1
		c-0.1-0.1-0.1-0.3-0.2-0.4c-0.5-0.4-1.6,0.3-2.1,0.5c-0.1,0.1-0.3,0.1-0.3,0.2c-0.1,0.2,0.1,0.3,0,0.5c-0.1,0.3-0.5,0.5-0.6,0.7
		c-0.3,0.6,0.3,1.4,0.2,2.1c0,0.4-0.4,0.8-0.3,1.1c0.1,0.1,0.3,0.2,0.4,0.4c0.1,0.2,0.1,0.3,0.2,0.5c0.4,0.5,0.8,1,1.2,1.4
		c0.1,0.1,0.2,0.2,0.4,0.2c0.2,0,0.3,0,0.5,0c0.3-0.1,0.6-0.1,1-0.3c0.3-0.2,0.4-0.4,0.8-0.2c0.3,0.1,0.5,0.5,0.9,0.2
		c0.3,0.3,0,0.7-0.1,1.1c-0.1,0.4,0.1,0.7,0.3,1.1c0.3,0.4,0.4,0.5,0.3,1c-0.1,0.4-0.1,0.8-0.2,1.2c-0.1,0.4-0.3,0.7-0.3,1.1
		c0,0.4,0.2,0.7,0.1,1.1c0,0.4-0.1,0.8-0.2,1.1c-0.1,0.4-0.4,0.7-0.5,1.1s-0.1,0.8,0.2,1.1c0.2,0.3,0.5,0.1,0.8-0.1
		c0.6-0.5,0.9-1.2,1.3-1.8c0.4-0.6,0.8-1.2,1.1-1.8c0.1-0.1,0.8-0.2,0.7-0.1C35.5,29.8,34.1,32.2,32.4,33.7L32.4,33.7z"/>
	
		<linearGradient id="SVGID_00000137811395331349649140000001852304690754998687_" gradientUnits="userSpaceOnUse" x1="17.1682" y1="32.3455" x2="20.3199" y2="58.0515" gradientTransform="matrix(1 0 0 -1 0 39.8898)">
		<stop  offset="0" style="stop-color:#00ADE4"/>
		<stop  offset="0.27" style="stop-color:#80D6F1"/>
	</linearGradient>
	<path style="fill:url(#SVGID_00000137811395331349649140000001852304690754998687_);" d="M25.4,2.5c-1.5-0.8-1.8-1.2-4.7-1.6
		c-2.5-0.1-5.1,0.4-7.5,1.3C8.9,3.9,5.3,6.9,2.9,10.8c0-0.1,0.1-0.1,0.1-0.2c1.6-3.2,3.9-5.9,6.9-7.9c0.5-0.3,1-0.6,1.5-0.9
		c0.3-0.2,0.6-0.3,0.9-0.5c0,0,11.4-5.4,18.9,5.6C29.5,5,27.6,3.5,25.4,2.5z"/>
	
		<radialGradient id="SVGID_00000134209971632208292580000014863190582043660724_" cx="-209.492" cy="420.1212" r="1" gradientTransform="matrix(19.2806 0 0 -19.308 4059.0686 8132.1875)" gradientUnits="userSpaceOnUse">
		<stop  offset="0" style="stop-color:#2F1251"/>
		<stop  offset="0.21" style="stop-color:#243572"/>
		<stop  offset="0.69" style="stop-color:#0A8DC5"/>
		<stop  offset="0.85" style="stop-color:#00ADE4"/>
	</radialGradient>
	<path style="fill:url(#SVGID_00000134209971632208292580000014863190582043660724_);" d="M31.1,6.9c4.6,3.7-0.8,3.9-0.8,3.9
		c-0.3-0.1-0.5-0.3-0.8-0.4l-0.1,0l-0.1,0c-0.2-0.1-0.4-0.2-0.6-0.3c-0.2-0.1-0.4-0.2-0.6-0.3c-2.5-1.2-5.3-1.7-8-1.4
		c-2.8,0.3-5.4,1.3-7.6,3.1c-3.1,0.1-4.9,3.6-4.9,3.6s-1.8,3.9-4.1,6.4c1.4,0.2,2.7,0.1,3.9-0.5c-0.2,2.4,0,4.7,0.8,7
		c0.8,2.2,2,4.3,3.6,6c1,0.9,2.1,1.7,3.4,2.3c0.7,0.4,1.4,0.7,2.2,0.9c2.8,0.8,5.7,1,8.5,0.3c1.7-0.4,3.3-1,4.8-1.9
		c0.1-0.1,0.1-0.1,0.2-0.2c0.1-0.2,0-0.7-1.2-1.1c-2-0.7-1.7-1.9-1.7-1.9s2.2,3,4.3,1l0.1-0.1c0.8-0.7,1.4-0.9,1.9-0.9
		c0.9-0.1,1.5,0.2,2.7-1.4c-0.4,4.2-5.1,6.2-7.6,7.3C26.8,39.4,24,40,21.2,40c-2.8,0-5.6-0.6-8.2-1.7c-0.2-0.1-0.5-0.2-0.7-0.3
		c-3.7-1.8-6.7-4.7-8.7-8.3C1.5,26.1,0.6,22,1,17.9c0.2-2.4,0.8-4.7,1.8-6.9c0-0.1,0.1-0.1,0.1-0.2c2.4-3.9,6-6.9,10.3-8.6
		c2.4-0.9,4.9-1.4,7.5-1.3c2.9,0.4,3.2,0.8,4.7,1.6C27.6,3.5,29.5,5,31.1,6.9L31.1,6.9L31.1,6.9z"/>
	
		<linearGradient id="SVGID_00000159458781642060621270000009742183664604337317_" gradientUnits="userSpaceOnUse" x1="13.1661" y1="30.5387" x2="27.5904" y2="26.1399" gradientTransform="matrix(1 0 0 -1 0 39.8898)">
		<stop  offset="0" style="stop-color:#6713AF"/>
		<stop  offset="0.84" style="stop-color:#00ADE4"/>
	</linearGradient>
	<path style="fill:url(#SVGID_00000159458781642060621270000009742183664604337317_);" d="M28.2,9.7c0.2,0.1,0.4,0.2,0.6,0.3
		C26,8.8,22.9,8.5,20,9.1c-2.9,0.6-5.6,2.2-7.7,4.4c0.1-0.5,0.3-1.1,0.4-1.7l-0.2-0.5c2.2-1.7,4.8-2.8,7.6-3.1
		C22.9,8,25.7,8.5,28.2,9.7L28.2,9.7z"/>
	
		<radialGradient id="SVGID_00000171001386147838109050000014029884147497289892_" cx="1998.4608" cy="-3564.5842" r="1" gradientTransform="matrix(9.997090e-02 0 0 -0.1001 -169.616 -346.1325)" gradientUnits="userSpaceOnUse">
		<stop  offset="0" style="stop-color:#00ADE4"/>
		<stop  offset="0.85" style="stop-color:#2F1251"/>
		<stop  offset="1" style="stop-color:#442A62"/>
	</radialGradient>
	<path style="fill:url(#SVGID_00000171001386147838109050000014029884147497289892_);" d="M30.1,10.7l0.3,0.1h0
		C30.2,10.7,30.1,10.7,30.1,10.7z"/>
	
		<linearGradient id="SVGID_00000144297445193885937900000003552148353227821981_" gradientUnits="userSpaceOnUse" x1="4.1809" y1="38.6682" x2="10.905" y2="36.6179" gradientTransform="matrix(1 0 0 -1 0 39.8898)">
		<stop  offset="0.27" style="stop-color:#7DD5F1"/>
		<stop  offset="1" style="stop-color:#00ADE4"/>
	</linearGradient>
	<path style="fill:url(#SVGID_00000144297445193885937900000003552148353227821981_);" d="M3.7,2.9c0.1-0.2,3-4,7.7-1.1
		c-0.5,0.3-1,0.6-1.5,0.9C6.5,0.4,3.8,2.8,3.7,2.9z"/>
	
		<linearGradient id="SVGID_00000003090935432609848760000012567522698107041714_" gradientUnits="userSpaceOnUse" x1="3.7979" y1="37.4195" x2="9.4258" y2="35.703" gradientTransform="matrix(1 0 0 -1 0 39.8898)">
		<stop  offset="0.33" style="stop-color:#00ADE4"/>
		<stop  offset="0.99" style="stop-color:#A172CF"/>
		<stop  offset="1" style="stop-color:#A471CF"/>
	</linearGradient>
	<path style="fill:url(#SVGID_00000003090935432609848760000012567522698107041714_);" d="M3.7,2.9c0.2-0.1,2.8-2.5,6.2-0.2
		C8.8,3.5,7.7,4.3,6.8,5.3C5.4,4.6,6.3,2.8,3.7,2.9L3.7,2.9z"/>
	
		<linearGradient id="SVGID_00000020362425453737288660000018165683976591386781_" gradientUnits="userSpaceOnUse" x1="5.5923" y1="24.514" x2="11.2545" y2="22.2321" gradientTransform="matrix(1 0 0 -1 0 39.8898)">
		<stop  offset="0" style="stop-color:#80D6F1"/>
		<stop  offset="0.55" style="stop-color:#00ADE4"/>
		<stop  offset="1" style="stop-color:#594174"/>
	</linearGradient>
	<path style="fill:url(#SVGID_00000020362425453737288660000018165683976591386781_);" d="M12.6,11.3l0.2,0.5
		c-0.1,0.6-0.3,1.1-0.4,1.7c-0.9,3-2,5.1-3.4,6.3c-0.5,0.4-1,0.8-1.6,1.1c-1.2,0.6-2.5,0.7-3.9,0.5c2.3-2.5,4.1-6.4,4.1-6.4
		S9.5,11.5,12.6,11.3z"/>
	
		<linearGradient id="SVGID_00000161615718349516419160000015344905930716096425_" gradientUnits="userSpaceOnUse" x1="18.498" y1="9.759" x2="-2.9771" y2="16.3082" gradientTransform="matrix(1 0 0 -1 0 39.8898)">
		<stop  offset="0" style="stop-color:#00ADE4"/>
		<stop  offset="0.1" style="stop-color:#178AD8"/>
		<stop  offset="0.31" style="stop-color:#5232BA"/>
		<stop  offset="0.38" style="stop-color:#6713AF"/>
		<stop  offset="0.87" style="stop-color:#2F1251"/>
	</linearGradient>
	<path style="fill:url(#SVGID_00000161615718349516419160000015344905930716096425_);" d="M7.4,20.9c0.6-0.3,1.1-0.6,1.6-1.1
		c-0.6,2.3-0.5,4.7,0,6.9c0.6,2.3,1.7,4.4,3.3,6.1c1.6,1.7,3.5,3.1,5.7,3.9c2.2,0.8,4.6,1.1,6.9,0.8c0.3,0,0.6,0,0.9-0.1
		c-2.8,0.6-5.7,0.5-8.5-0.3c-0.7-0.3-1.5-0.6-2.2-0.9c-1.2-0.6-2.3-1.4-3.4-2.3c-1.6-1.7-2.8-3.8-3.6-6C7.4,25.6,7.2,23.3,7.4,20.9
		L7.4,20.9z"/>
	
		<linearGradient id="SVGID_00000000199361993743860230000007678614863705596074_" gradientUnits="userSpaceOnUse" x1="27.8083" y1="7.4259" x2="32.1066" y2="6.1155" gradientTransform="matrix(1 0 0 -1 0 39.8898)">
		<stop  offset="0.26" style="stop-color:#6713AF"/>
		<stop  offset="1" style="stop-color:#00ADE4"/>
	</linearGradient>
	<path style="fill:url(#SVGID_00000000199361993743860230000007678614863705596074_);" d="M27.9,32.3c2.7,1.4,2-0.6,4.4,0.9
		l-0.1,0.1C30,35.4,27.9,32.3,27.9,32.3z"/>
	<path class="st11" d="M49.6,11c0-0.5,0.2-1,0.5-1.3c0.4-0.4,0.8-0.5,1.3-0.5c0.5,0,1,0.2,1.3,0.5c0.4,0.4,0.6,0.8,0.6,1.3v2.7H60
		c0.5,0,1,0.2,1.3,0.5c0.4,0.4,0.5,0.8,0.5,1.3s-0.2,1-0.5,1.3c-0.4,0.4-0.8,0.5-1.3,0.5h-6.7v5.9c0,0.8,0.3,1.4,0.8,2
		c0.6,0.5,1.2,0.8,2,0.8c0.6,0,1.1-0.2,1.6-0.5c0.5-0.3,0.8-0.8,1-1.3c0.2-0.5,0.5-0.8,1-1c0.5-0.2,0.9-0.2,1.4,0
		c0.5,0.2,0.8,0.5,1,1c0.2,0.5,0.2,1,0,1.4c-0.5,1.3-1.3,2.3-2.4,3c-1.1,0.8-2.3,1.1-3.7,1.1c-1.8,0-3.4-0.6-4.6-1.9
		c-1.3-1.3-1.9-2.8-1.9-4.7V11z M81.9,27.9c0,0.6-0.2,1.1-0.6,1.5c-0.4,0.4-0.9,0.6-1.5,0.6c-0.9,0-1.6-0.4-1.9-1.3
		C76.5,29.6,75,30,73.4,30c-2.3,0-4.3-0.8-6-2.5c-1.7-1.7-2.5-3.7-2.5-6c0-2.4,0.8-4.4,2.5-6c1.7-1.7,3.7-2.5,6-2.5
		c2.4,0,4.4,0.8,6,2.5c1.7,1.7,2.5,3.7,2.5,6V27.9z M76.4,18.5c-0.8-0.8-1.9-1.3-3-1.3c-1.2,0-2.2,0.4-3,1.3c-0.8,0.8-1.3,1.9-1.3,3
		c0,1.2,0.4,2.2,1.3,3c0.8,0.8,1.8,1.2,3,1.2c1.2,0,2.2-0.4,3-1.2c0.8-0.8,1.3-1.9,1.3-3C77.7,20.3,77.3,19.3,76.4,18.5z
		 M102.6,27.9c0,0.6-0.2,1.1-0.6,1.5c-0.4,0.4-0.9,0.6-1.5,0.6c-0.6,0-1.1-0.2-1.5-0.6c-0.4-0.4-0.6-0.9-0.6-1.5v-6.4
		c0-1.2-0.4-2.2-1.3-3c-0.8-0.8-1.9-1.3-3-1.3c-1.2,0-2.2,0.4-3,1.3c-0.8,0.8-1.3,1.9-1.3,3v6.4c0,0.6-0.2,1.1-0.6,1.5
		c-0.4,0.4-0.9,0.6-1.5,0.6s-1.1-0.2-1.5-0.6c-0.4-0.4-0.6-0.9-0.6-1.5v-6.4c0-2.4,0.8-4.4,2.5-6c1.7-1.7,3.7-2.5,6-2.5
		c2.4,0,4.4,0.8,6,2.5c1.7,1.7,2.5,3.7,2.5,6V27.9z M122.8,28.7c0,2.3-0.8,4.3-2.5,6c-1.7,1.7-3.7,2.5-6,2.5c-1.2,0-2.4-0.3-3.5-0.8
		c-1.1-0.5-2.1-1.2-2.9-2.2c-0.4-0.4-0.6-1-0.5-1.5c0-0.6,0.3-1.1,0.7-1.4c0.4-0.4,1-0.5,1.5-0.5c0.6,0,1.1,0.3,1.4,0.7
		c0.4,0.5,0.9,0.8,1.5,1.1c0.6,0.3,1.2,0.4,1.8,0.4c1.2,0,2.2-0.4,3-1.3c0.8-0.8,1.2-1.7,1.2-2.8c-1.3,0.8-2.7,1.1-4.3,1.1
		c-2.3,0-4.3-0.8-6-2.5c-1.7-1.7-2.5-3.7-2.5-6c0-2.3,0.8-4.3,2.5-6c1.7-1.7,3.7-2.5,6-2.5c2.4,0,4.4,0.8,6,2.5
		c1.7,1.7,2.5,3.7,2.5,6V28.7z M117.3,18.5c-0.8-0.8-1.9-1.2-3-1.2c-1.2,0-2.2,0.4-3,1.2c-0.8,0.8-1.3,1.9-1.3,3
		c0,1.2,0.4,2.2,1.3,3c0.8,0.8,1.8,1.2,3,1.2c1.2,0,2.2-0.4,3-1.2c0.8-0.8,1.3-1.9,1.3-3C118.5,20.3,118.1,19.3,117.3,18.5z
		 M131.3,27.9c0,0.6-0.2,1.1-0.6,1.5c-0.4,0.4-0.9,0.6-1.5,0.6s-1.1-0.2-1.5-0.6c-0.4-0.4-0.6-0.9-0.6-1.5V11.3
		c0-0.6,0.2-1.1,0.6-1.5c0.4-0.4,0.9-0.6,1.5-0.6s1.1,0.2,1.5,0.6c0.4,0.4,0.6,0.9,0.6,1.5V27.9z M146.3,25c0.5-0.4,1-0.5,1.6-0.5
		c0.6,0,1.1,0.3,1.5,0.7c0.4,0.4,0.5,0.9,0.4,1.5c-0.1,0.5-0.3,1-0.8,1.3c-0.8,0.6-1.6,1.1-2.5,1.5c-0.9,0.3-1.9,0.5-2.9,0.5
		c-2.3,0-4.3-0.8-6-2.5c-1.7-1.7-2.5-3.7-2.5-6c0-2.4,0.8-4.4,2.5-6c1.7-1.7,3.7-2.5,6-2.5c2.4,0,4.4,0.8,6,2.5
		c1.7,1.7,2.5,3.7,2.5,6c0,1.1-0.7,1.6-2.1,1.6h-10.3c0.2,0.8,0.6,1.5,1.2,2c0.7,0.6,1.6,0.9,2.7,0.9C144.6,26,145.6,25.7,146.3,25z
		 M147.4,19.9c-0.8-1.9-2-2.9-3.8-2.9c-1.9,0-3.3,1-4,2.9H147.4z"/>
</g>
</svg>
