<?xml version="1.0" standalone="no"?>
<!DOCTYPE svg PUBLIC "-//W3C//DTD SVG 20010904//EN"
 "http://www.w3.org/TR/2001/REC-SVG-20010904/DTD/svg10.dtd">
<svg version="1.0" xmlns="http://www.w3.org/2000/svg"
 width="1230.000000pt" height="1230.000000pt" viewBox="0 0 1230.000000 1230.000000"
 preserveAspectRatio="xMidYMid meet">
<metadata>
Created by potrace 1.14, written by Peter Selinger 2001-2017
</metadata>
<g transform="translate(0.000000,1230.000000) scale(0.100000,-0.100000)"
fill="#000000" stroke="none">
<path d="M5838 12245 c-1 -1 -57 -6 -123 -10 -66 -4 -129 -9 -140 -10 -11 -2
-47 -6 -80 -10 -32 -4 -66 -8 -75 -10 -8 -1 -37 -6 -65 -9 -27 -4 -57 -9 -65
-11 -8 -2 -33 -6 -55 -10 -37 -5 -88 -13 -125 -20 -8 -2 -35 -8 -60 -14 -25
-5 -56 -12 -70 -14 -14 -3 -63 -15 -110 -27 -396 -100 -734 -228 -1017 -384
l-61 -34 -164 82 c-234 118 -446 188 -658 216 -93 13 -309 16 -380 6 -25 -4
-63 -9 -85 -12 -241 -34 -531 -165 -760 -343 -57 -44 -217 -199 -293 -283 -15
-17 -10 -18 89 -19 57 0 115 -2 129 -5 149 -26 227 -61 301 -137 48 -49 99
-138 159 -277 57 -130 128 -222 213 -273 l38 -23 -56 -60 c-31 -32 -87 -92
-123 -133 -37 -41 -72 -79 -78 -85 -36 -38 -223 -272 -304 -381 -265 -359
-485 -734 -693 -1185 -56 -122 -89 -196 -91 -205 -1 -5 -10 -28 -20 -50 -74
-171 -213 -598 -242 -745 -3 -14 -12 -51 -20 -82 -13 -53 -28 -123 -40 -188
-2 -14 -9 -45 -14 -70 -11 -49 -46 -281 -56 -370 -6 -61 -10 -100 -19 -210 -3
-41 -8 -102 -11 -135 -20 -248 -20 -740 1 -915 2 -19 7 -73 11 -120 3 -47 7
-92 9 -100 2 -8 6 -44 10 -80 4 -36 8 -72 10 -80 1 -8 6 -40 10 -70 4 -30 9
-64 11 -75 2 -11 6 -33 9 -50 3 -16 7 -41 10 -55 3 -14 7 -38 10 -55 5 -33 12
-66 20 -105 3 -14 8 -36 11 -50 3 -14 7 -36 10 -50 36 -177 159 -595 229 -780
187 -490 388 -889 643 -1274 28 -43 52 -82 52 -87 0 -4 3 -9 8 -11 4 -1 23
-25 42 -53 282 -409 686 -853 1065 -1170 44 -37 90 -75 102 -86 54 -45 277
-212 370 -277 451 -314 948 -568 1479 -757 132 -47 430 -139 483 -150 9 -2 43
-10 76 -18 33 -9 71 -18 85 -21 14 -3 66 -15 115 -26 50 -11 101 -21 115 -24
14 -2 68 -11 120 -21 108 -18 124 -21 200 -30 30 -4 62 -9 70 -10 8 -2 49 -6
90 -10 41 -4 82 -9 91 -10 13 -3 73 -7 279 -20 72 -5 487 -5 575 0 171 9 308
20 430 36 44 5 98 12 120 15 22 2 51 7 65 9 14 3 39 7 55 9 30 5 175 31 230
41 68 13 302 66 325 74 14 5 63 19 110 31 47 13 114 32 150 44 36 11 67 21 70
21 10 2 115 36 135 45 11 4 79 29 150 55 136 50 180 67 315 128 30 14 120 53
200 87 80 34 150 66 155 70 6 3 26 13 45 20 105 41 484 234 655 334 456 268
794 568 1025 907 144 214 255 506 285 754 4 28 9 59 11 70 3 11 -15 -4 -42
-35 -125 -143 -227 -234 -324 -288 -95 -52 -166 -70 -305 -77 -49 -3 -116 -7
-147 -9 l-57 -4 40 57 c86 122 199 295 241 369 286 504 475 1030 552 1537 5
35 16 109 21 145 11 75 26 232 31 315 5 96 5 540 0 595 -2 25 -7 87 -11 137
-3 51 -8 103 -10 115 -2 13 -6 49 -10 82 -4 32 -8 68 -10 80 -6 34 -16 99 -20
131 -6 36 -12 71 -19 93 -3 9 -7 34 -11 56 -3 21 -7 41 -10 45 -2 4 -6 18 -9
32 -72 359 -258 835 -471 1204 -291 506 -698 967 -1160 1315 -126 95 -332 231
-447 297 -54 30 -98 57 -98 59 0 6 153 -72 204 -104 40 -26 53 -29 103 -25 95
6 282 40 376 68 203 59 345 162 381 277 51 163 -34 347 -268 582 -97 97 -152
148 -229 210 -26 22 -76 78 -110 125 -461 643 -921 1083 -1512 1448 -345 213
-882 426 -1260 498 -183 35 -315 55 -540 80 -61 7 -590 16 -597 10z m-753
-10855 c3 -6 -1 -7 -9 -4 -18 7 -21 14 -7 14 6 0 13 -4 16 -10z m100 -58 c-3
-3 -11 0 -18 7 -9 10 -8 11 6 5 10 -3 15 -9 12 -12z"/>
</g>
</svg>
